<?xml version="1.0" encoding="UTF-8"?>
<svg version="1.1" xmlns="http://www.w3.org/2000/svg" width="1536" height="1024">
<path d="M0 0 C506.88 0 1013.76 0 1536 0 C1536 337.92 1536 675.84 1536 1024 C1029.12 1024 522.24 1024 0 1024 C0 686.08 0 348.16 0 0 Z " fill="#373739" transform="translate(0,0)"/>
<path d="M0 0 C0.66 0 1.32 0 2 0 C10.68103093 18.35698659 19.20879702 36.76296683 27.38964844 55.34960938 C29.12962625 59.29384046 30.87956443 63.23353012 32.6328125 67.171875 C32.94972046 67.88376984 33.26662842 68.59566467 33.59313965 69.32913208 C34.24905982 70.80253284 34.90498436 72.27593166 35.56091309 73.74932861 C41.9545512 88.11650751 48.32703482 102.49310796 54.6875 116.875 C55.08973785 117.78447388 55.49197571 118.69394775 55.90640259 119.63098145 C61.57814368 132.46066548 67.20496674 145.3086961 72.72924805 158.20263672 C75.1707523 163.87963034 77.68647415 169.51129741 80.3203125 175.1015625 C84.19511572 183.33141453 87.83940146 191.65821572 91.47720337 199.9949646 C93.45571992 204.52849294 95.44030273 209.05936086 97.42578125 213.58984375 C97.81950424 214.48828506 98.21322723 215.38672638 98.61888123 216.31239319 C101.97317404 223.95733247 105.38191181 231.57651484 108.8125 239.1875 C119.68126904 263.33956649 130.05373076 287.6971699 140.22906494 312.14819336 C140.97269826 313.9344205 141.71752757 315.72014958 142.46240234 317.50585938 C150.75308089 337.38984536 158.83173831 357.35815842 166.89997864 377.33314514 C169.92599094 384.82249841 172.96795988 392.30529245 176.01351929 399.78671265 C182.08931491 414.71640059 188.1041735 429.66999534 194.06323242 444.64666748 C195.09146566 447.22977856 196.12090642 449.81240678 197.15039062 452.39501953 C206.06461154 474.76535993 214.92162997 497.15126374 223.37255859 519.70141602 C223.63084442 520.39052567 223.88913025 521.07963531 224.15524292 521.78962708 C224.65962451 523.135933 225.16348427 524.48243457 225.66677856 525.82914734 C227.06282961 529.55201646 228.48876237 533.26149499 229.94335938 536.96191406 C230.2676593 537.78777008 230.59195923 538.6136261 230.92608643 539.46450806 C231.55738534 541.06776281 232.19166991 542.66984593 232.82928467 544.27059937 C235 549.78096571 235 549.78096571 235 552 C236.11632812 551.39414062 237.23265625 550.78828125 238.3828125 550.1640625 C255.70624571 540.85236543 273.4127257 532.46998253 292 526 C293.17997559 525.58089355 293.17997559 525.58089355 294.38378906 525.15332031 C354.745274 503.79034012 420.46933563 501.92518163 483 514 C484.10408203 514.20995605 485.20816406 514.41991211 486.34570312 514.63623047 C503.33943443 517.91726917 519.65542815 522.32763949 536 528 C537.03753418 528.35465332 538.07506836 528.70930664 539.14404297 529.07470703 C554.43294028 534.31883891 569.30942249 540.26212425 584 547 C584.99999023 547.45745605 585.99998047 547.91491211 587.03027344 548.38623047 C614.92784418 561.24064736 641.71952183 576.53890957 667 594 C667.59603027 594.40976074 668.19206055 594.81952148 668.80615234 595.24169922 C688.74141238 608.98483354 707.88272078 623.83483114 726.296875 639.55126953 C727.97339988 640.97737312 729.65765292 642.3938283 731.34375 643.80859375 C743.3517502 653.92979559 754.93328111 664.61365856 765.84765625 675.91015625 C767.75960477 677.76658539 769.72229598 679.48705946 771.74609375 681.21875 C776.13068315 685.02832791 780.06665828 689.16997788 784 693.4375 C788.64601148 698.45101825 793.33489603 703.3902308 798.20776367 708.18481445 C800.59969753 710.60737654 802.80975338 713.16479835 805.02734375 715.74609375 C806.96477787 717.9597561 808.95129188 720.12225022 810.95214844 722.27856445 C815.7611782 727.4630418 820.31785187 732.77369475 824.75390625 738.28515625 C827.0883059 741.10673495 829.51990598 743.80590712 832 746.5 C836.89929085 751.83091308 841.45313521 757.36444927 846 763 C848.97 766.63 851.94 770.26 855 774 C855 818.55 855 863.1 855 909 C348.12 909 -158.76 909 -681 909 C-681 828.15 -681 747.3 -681 664 C-667.5537027 659.90764865 -654.11326547 655.82207888 -640.625 651.875 C-639.23564538 651.46755602 -637.84632259 651.06000347 -636.45703125 650.65234375 C-631.56020347 649.21578205 -626.66336392 647.77925765 -621.76550293 646.34622192 C-609.85280587 642.86562008 -609.85280587 642.86562008 -598 639.1875 C-596.82087036 638.81214111 -596.82087036 638.81214111 -595.61791992 638.42919922 C-593.93303049 637.89251012 -592.24838126 637.35506638 -590.56396484 636.81689453 C-588.01968918 636.00627309 -585.47300531 635.20364689 -582.92578125 634.40234375 C-549.77964944 623.93514423 -516.81795647 612.85112134 -484.10913086 601.08959961 C-482.14835407 600.3850331 -480.18749895 599.68068452 -478.2265625 598.9765625 C-477.27614578 598.63522781 -476.32572906 598.29389313 -475.34651184 597.94221497 C-469.16708097 595.7364233 -462.95626188 593.65903195 -456.7109375 591.6484375 C-454.37077991 590.87991167 -452.03160764 590.10846909 -449.69281006 589.33581543 C-448.26086965 588.87164147 -446.82459596 588.42057296 -445.3838501 587.98449707 C-435.36237482 584.95038148 -430.37105914 581.0917327 -425 572 C-423.84437384 570.29973508 -422.67789404 568.60678991 -421.5 566.921875 C-420.33195255 565.1988519 -419.16533039 563.47486188 -418 561.75 C-410.72546941 551.0336077 -403.35045257 540.38993949 -395.93457031 529.77099609 C-394.06624719 527.09488966 -392.20085096 524.41676447 -390.3359375 521.73828125 C-384.21759466 512.96161814 -378.03561733 504.23689754 -371.75317383 495.5769043 C-368.12953184 490.57834019 -364.55086572 485.55048335 -361 480.5 C-355.28114686 472.37028548 -349.46888633 464.31038707 -343.63671875 456.26171875 C-342.01490936 454.02060267 -340.39734868 451.77648685 -338.78125 449.53125 C-332.65173519 441.01881068 -326.47023218 432.54770656 -320.23510742 424.11230469 C-316.24357678 418.70603328 -312.29796659 413.26867457 -308.375 407.8125 C-303.84842145 401.52131149 -299.24968139 395.29136097 -294.58496094 389.10205078 C-288.92397558 381.5867322 -283.35539278 374.00388079 -277.78222656 366.42333984 C-274.27403913 361.65316608 -270.76017835 356.88716839 -267.24609375 352.12133789 C-264.34897833 348.19143953 -261.45556176 344.25893286 -258.5703125 340.3203125 C-251.79946489 331.08733849 -244.92813792 321.9402476 -237.97021484 312.84741211 C-232.91056086 306.22429933 -227.94266694 299.53873095 -223.01220703 292.8190918 C-217.87475046 285.81807684 -212.67153928 278.868258 -207.45019531 271.9296875 C-206.01336592 270.01778522 -204.58026717 268.10314874 -203.1484375 266.1875 C-197.5157923 258.65503041 -191.83706154 251.159951 -186.125 243.6875 C-180.97182548 236.9454402 -175.885807 230.16098015 -170.875 223.3125 C-165.73809886 216.29478792 -160.46587668 209.39864173 -155.10449219 202.55126953 C-150.89543636 197.17041445 -146.77028133 191.73383729 -142.68579102 186.25805664 C-138.43187181 180.56017873 -134.12671907 174.90232177 -129.8125 169.25 C-124.17298544 161.85915311 -118.5606638 154.45042063 -113 147 C-108.02543677 140.33763853 -103.01606988 133.70575926 -97.93286133 127.12597656 C-94.66383861 122.88528437 -91.45183105 118.6040586 -88.25 114.3125 C-83.32180559 107.71176918 -78.28441759 101.20238629 -73.21191406 94.7121582 C-69.41818146 89.84889367 -65.68503907 84.94603456 -62 80 C-55.98640512 71.93113861 -49.80256081 63.99949323 -43.61035156 56.06738281 C-41.31177731 53.11645395 -39.02847088 50.15396548 -36.75 47.1875 C-35.9559375 46.15367187 -35.161875 45.11984375 -34.34375 44.0546875 C-33.5703125 43.04664063 -32.796875 42.03859375 -32 41 C-24.56727001 31.31267525 -17.09947502 21.6533026 -9.58300781 12.03076172 C-8.18264575 10.23430711 -6.78945848 8.4325931 -5.3984375 6.62890625 C-4.68945312 5.72011719 -3.98046875 4.81132813 -3.25 3.875 C-2.65703125 3.10929687 -2.0640625 2.34359375 -1.453125 1.5546875 C-0.97359375 1.04164062 -0.4940625 0.52859375 0 0 Z " fill="#85D985" transform="translate(681,115)"/>
<path d="M0 0 C192.72 0 385.44 0 584 0 C584 104.94 584 209.88 584 318 C568.16 323.61 552.32 329.22 536 335 C527.03560712 338.23462393 518.07508103 341.47653628 509.125 344.75 C504.49776543 346.43851397 499.86997259 348.12549554 495.2421875 349.8125 C494.07969482 350.23650085 492.91720215 350.66050171 491.71948242 351.09735107 C483.19589364 354.20463369 474.66592769 357.29398306 466.1328125 360.375 C437.36341635 370.76350756 408.63368477 381.24277124 380 392 C378.21322062 392.67058484 376.42643671 393.34115761 374.63964844 394.01171875 C332.65378023 409.77647425 290.8066829 425.90342791 249.04379272 442.2490387 C243.83314837 444.28706682 238.61765637 446.31216606 233.3984375 448.328125 C212.56394926 456.3809611 191.81821525 464.64737621 171.0859375 472.9597168 C158.53115814 477.99265275 145.96828616 483.00172643 133.375 487.9375 C116.82015571 494.43206881 100.3450388 501.11920294 83.8762207 507.82843018 C80.7334267 509.10858319 77.59036693 510.38808216 74.44726562 511.66748047 C63.94136553 515.94402044 53.43591612 520.22166825 42.93180847 524.50260925 C40.76885299 525.38409953 38.60577922 526.26529961 36.44258118 527.14619446 C31.16417828 529.29685211 25.88932034 531.45558907 20.62060547 533.62988281 C19.10339149 534.25475082 19.10339149 534.25475082 17.55552673 534.89224243 C15.65170084 535.67683519 13.74878059 536.4636305 11.84693909 537.25302124 C11.00211472 537.60087677 10.15729034 537.9487323 9.28686523 538.30712891 C8.55201401 538.61131744 7.81716278 538.91550598 7.06004333 539.22891235 C5.05730049 539.97855205 3.08345553 540.52583413 1 541 C-9.4859729 475.90916317 -9.4859729 475.90916317 -11.47827148 455.21337891 C-11.83207273 451.61132185 -12.21611214 448.01397384 -12.62036133 444.41723633 C-14.90823842 423.95502417 -16.66519517 403.45537763 -18.39263916 382.93963623 C-18.7045931 379.24478072 -19.01988878 375.55021352 -19.33524513 371.85564709 C-19.64353373 368.2411301 -19.95034307 364.62648878 -20.25666428 361.01180458 C-20.4006639 359.31323978 -20.54496249 357.61470029 -20.68959427 355.91618919 C-21.08220107 351.29762588 -21.46525386 346.67846763 -21.83369255 342.05791092 C-21.98622376 340.17046901 -22.14799613 338.28377985 -22.3106842 336.39718628 C-23.25872406 324.31407277 -23.16414079 312.22240588 -23.16796875 300.109375 C-23.17119472 297.6779173 -23.17455971 295.24645977 -23.17805481 292.81500244 C-23.18402197 287.71813511 -23.18589776 282.62128464 -23.18530273 277.52441406 C-23.18522228 272.39156508 -23.19203656 267.25880688 -23.20581055 262.12597656 C-23.30849769 223.29890572 -22.73774834 184.58426919 -19.34033203 145.88476562 C-19.07879612 142.89942887 -18.82229248 139.91384108 -18.56982422 136.92773438 C-18.15840901 132.06411197 -17.74068008 127.20106348 -17.31903076 122.33831787 C-17.15206271 120.40958458 -16.98619296 118.48075579 -16.82159424 116.55181885 C-14.97031812 94.95550359 -12.17079867 73.5026533 -9.05761719 52.05493164 C-8.62562367 49.06681392 -8.20340358 46.07741224 -7.78125 43.08789062 C-5.67813712 28.56030685 -2.88875221 14.44376106 0 0 Z " fill="#88B999" transform="translate(952,0)"/>
<path d="M0 0 C4.59066615 11.66457712 9.02196425 23.37736994 13.30697632 35.15756226 C14.28528301 37.84699546 15.26602459 40.53553087 16.24731445 43.22387695 C17.56820727 46.84312448 18.88830969 50.46265822 20.20751953 54.08251953 C38.8506351 105.23497382 57.82923984 156.26838007 76.97003174 207.23657227 C82.62843432 222.30610968 88.28126585 237.37768289 93.86273193 252.47592163 C94.43911696 254.03440537 95.01641697 255.59255112 95.5947876 257.15029907 C98.88934538 266.02850009 102.03842388 274.93755947 104.965271 283.94454956 C106.30741239 288.04909805 107.77845646 292.03421686 109.5 296 C111.95440204 301.66643301 113.88722002 307.45630835 115.76953125 313.33203125 C117.30916348 318.09633766 119.06016702 322.72908465 120.94506836 327.3671875 C122.80996912 332.02145499 124.52844726 336.72873445 126.25 341.4375 C126.79527344 342.90606445 126.79527344 342.90606445 127.3515625 344.40429688 C127.69445313 345.34208984 128.03734375 346.27988281 128.390625 347.24609375 C128.70032227 348.08841553 129.01001953 348.9307373 129.32910156 349.79858398 C130 352 130 352 130 355 C-215.51 355 -561.02 355 -917 355 C-917 274.15 -917 193.3 -917 110 C-903.5537027 105.90764865 -890.11326547 101.82207888 -876.625 97.875 C-875.23564538 97.46755602 -873.84632259 97.06000347 -872.45703125 96.65234375 C-867.56020347 95.21578205 -862.66336392 93.77925765 -857.76550293 92.34622192 C-845.85280587 88.86562008 -845.85280587 88.86562008 -834 85.1875 C-833.21391357 84.93726074 -832.42782715 84.68702148 -831.61791992 84.42919922 C-829.93303049 83.89251012 -828.24838126 83.35506638 -826.56396484 82.81689453 C-824.01968918 82.00627309 -821.47300531 81.20364689 -818.92578125 80.40234375 C-782.82797475 69.00303643 -747.02731842 56.73049167 -711.38276672 43.99206543 C-702.68096896 40.88246391 -693.96878184 37.8027368 -685.25335693 34.73156738 C-683.05042409 33.9552691 -680.84768524 33.17842307 -678.64501953 32.40136719 C-675.43013489 31.26723235 -672.21511728 30.13347522 -669 29 C-667.62437146 30.28965176 -666.29233607 31.62689293 -665 33 C-665 33.66 -665 34.32 -665 35 C-663.68 35 -662.36 35 -661 35 C-659.87724218 36.36091857 -658.76384015 37.73081372 -657.703125 39.140625 C-654.68631924 42.43420193 -650.90527839 44.76073494 -647.23046875 47.265625 C-646.49441406 47.83796875 -645.75835938 48.4103125 -645 49 C-645 49.66 -645 50.32 -645 51 C-644.01 51 -643.02 51 -642 51 C-642 51.66 -642 52.32 -642 53 C-641.29875 53.226875 -640.5975 53.45375 -639.875 53.6875 C-636.30591412 55.31686529 -633.96334151 57.43177069 -631 60 C-630.34 60.33 -629.68 60.66 -629 61 C-629 61.66 -629 62.32 -629 63 C-628.46375 63.2475 -627.9275 63.495 -627.375 63.75 C-623.16825556 65.96407602 -619.37697157 68.62668985 -615.75 71.6875 C-613.25038973 73.97204387 -613.25038973 73.97204387 -611 75 C-611 75.66 -611 76.32 -611 77 C-610.4225 77.103125 -609.845 77.20625 -609.25 77.3125 C-606.64338842 78.10896465 -605.0264689 79.19065277 -603 81 C-603 81.66 -603 82.32 -603 83 C-602.113125 83.226875 -601.22625 83.45375 -600.3125 83.6875 C-596.43158479 85.22522112 -594.88355649 86.98537276 -592 90 C-587.20388382 94.06558192 -582.41130884 97.79398483 -577 101 C-576 102 -575 103 -574 104 C-571.08846538 105.86636835 -568.11491708 107.50022511 -565 109 C-565 109.66 -565 110.32 -565 111 C-564.34 111 -563.68 111 -563 111 C-563 111.66 -563 112.32 -563 113 C-561.35 113.66 -559.7 114.32 -558 115 C-558 115.66 -558 116.32 -558 117 C-557.4121875 117.10183594 -556.824375 117.20367188 -556.21875 117.30859375 C-553.61414473 118.12024011 -552.45726931 119.17819906 -550.5 121.0625 C-546.23025241 124.95644583 -541.580978 128.01184935 -536.75 131.1640625 C-533.59839089 133.26811972 -530.85891362 135.51398816 -528 138 C-526.31906264 139.38301513 -524.63093748 140.75731921 -522.9375 142.125 C-522.12152344 142.78757812 -521.30554688 143.45015625 -520.46484375 144.1328125 C-518.01606299 146.06899584 -518.01606299 146.06899584 -515.19140625 147.6171875 C-514.46824219 148.07351563 -513.74507812 148.52984375 -513 149 C-513 149.66 -513 150.32 -513 151 C-512.2575 151.2475 -511.515 151.495 -510.75 151.75 C-507.78209456 153.09904793 -506.24467077 154.68050687 -504 157 C-503.01 157.33 -502.02 157.66 -501 158 C-499.66666667 159.33333333 -498.33333333 160.66666667 -497 162 C-496.01 162.33 -495.02 162.66 -494 163 C-493.34 163.99 -492.68 164.98 -492 166 C-490.25363473 167.00254302 -488.50523795 168.00232987 -486.734375 168.9609375 C-484.46517121 170.32041545 -482.83302395 172.10587525 -481 174 C-480.0925 174.53625 -479.185 175.0725 -478.25 175.625 C-477.5075 176.07875 -476.765 176.5325 -476 177 C-476 177.66 -476 178.32 -476 179 C-475.01 179 -474.02 179 -473 179 C-473 179.66 -473 180.32 -473 181 C-472.4225 181.0825 -471.845 181.165 -471.25 181.25 C-468.34613597 182.21795468 -467.16875064 183.83124936 -465 186 C-463.00175268 187.317303 -460.96765937 188.54484432 -458.90234375 189.75390625 C-456.97584765 191.01582053 -455.62196637 192.37030999 -454 194 C-451.9517898 195.62792083 -449.89512453 197.23005092 -447.8125 198.8125 C-447.23314697 199.25464844 -446.65379395 199.69679688 -446.05688477 200.15234375 C-444.90167877 201.03311388 -443.74569002 201.91285845 -442.58886719 202.79150391 C-441.22490881 203.82893383 -439.86586604 204.87282096 -438.5078125 205.91796875 C-437.82460938 206.44003906 -437.14140625 206.96210937 -436.4375 207.5 C-435.85871094 207.9434375 -435.27992188 208.386875 -434.68359375 208.84375 C-433.01183206 210.06159041 -433.01183206 210.06159041 -431.03515625 210.90625 C-429 212 -429 212 -427.171875 213.8359375 C-423.96746367 217.02882217 -420.19295944 219.35188311 -416.42578125 221.8203125 C-414.9175034 222.83267133 -413.45423016 223.91142887 -412 225 C-412 225.66 -412 226.32 -412 227 C-411.01 227 -410.02 227 -409 227 C-408.67 227.66 -408.34 228.32 -408 229 C-405.69034152 230.05352843 -403.3570226 231.05719096 -401 232 C-401 232.99 -401 233.98 -401 235 C-400.29875 235.226875 -399.5975 235.45375 -398.875 235.6875 C-395.36009961 237.29212844 -392.90252388 239.4602916 -390 242 C-386.33114983 245.08775557 -386.33114983 245.08775557 -382 247 C-382 247.66 -382 248.32 -382 249 C-381.2265625 249.37125 -381.2265625 249.37125 -380.4375 249.75 C-371.41558442 254.37662338 -371.41558442 254.37662338 -369 258 C-367.34545246 259.01992657 -365.67678345 260.01705797 -364 261 C-361.19135972 263.22754229 -358.45983629 265.53384583 -355.71875 267.84375 C-353.22897176 269.81840171 -350.75153338 271.4224542 -348 273 C-347.01 273.66 -346.02 274.32 -345 275 C-345 275.66 -345 276.32 -345 277 C-344.4225 277.0825 -343.845 277.165 -343.25 277.25 C-340.36130421 278.2128986 -339.10880839 279.82728832 -337 282 C-335.33720673 283.0064275 -333.67016516 284.00585407 -332 285 C-330 286.66666667 -328 288.33333333 -326 290 C-325.05125 290.556875 -324.1025 291.11375 -323.125 291.6875 C-322.42375 292.120625 -321.7225 292.55375 -321 293 C-321 293.66 -321 294.32 -321 295 C-320.13375 295.42152344 -320.13375 295.42152344 -319.25 295.8515625 C-313.85508833 298.60521533 -309.21682415 301.63257499 -305 306 C-304.34 306.33 -303.68 306.66 -303 307 C-300.49808719 308.2509564 -298.97010432 310.02989568 -297 312 C-294.86690808 313.23512079 -294.86690808 313.23512079 -293 314 C-293 314.66 -293 315.32 -293 316 C-292.1646875 316.4021875 -292.1646875 316.4021875 -291.3125 316.8125 C-288.78774666 318.10899496 -286.36285516 319.42476323 -284 321 C-284 321.66 -284 322.32 -284 323 C-280.61702326 321.608252 -279.2171018 320.25333181 -277.40625 317.09765625 C-276.93977051 316.2998877 -276.47329102 315.50211914 -275.99267578 314.68017578 C-275.25380127 313.38442627 -275.25380127 313.38442627 -274.5 312.0625 C-273.42637427 310.22675493 -272.35080559 308.392145 -271.2734375 306.55859375 C-270.7278418 305.62644043 -270.18224609 304.69428711 -269.62011719 303.73388672 C-267.19886824 299.64812034 -264.67310354 295.63251067 -262.125 291.625 C-261.63290039 290.84987061 -261.14080078 290.07474121 -260.63378906 289.27612305 C-259.61586668 287.67500914 -258.5969733 286.07451217 -257.57714844 284.47460938 C-255.94715367 281.91708198 -254.320903 279.35720376 -252.6953125 276.796875 C-249.75957112 272.17475108 -246.81682454 267.55712684 -243.87255859 262.94042969 C-241.93823258 259.90300824 -240.0099559 256.86180034 -238.08203125 253.8203125 C-229.88284883 240.91202531 -221.46907325 228.18242127 -212.78613281 215.59472656 C-211.02387291 213.03468033 -209.2718304 210.46797012 -207.5234375 207.8984375 C-196.70167019 191.99828142 -185.4605719 176.44545376 -174 161 C-173.46552246 160.2795752 -172.93104492 159.55915039 -172.38037109 158.81689453 C-162.62283045 145.68539412 -152.67825327 132.78805947 -141.95703125 120.42578125 C-140.05625628 118.23324505 -138.17774688 116.02558081 -136.32421875 113.79296875 C-125.43293393 100.68132723 -113.58931696 88.50314486 -101.5625 76.4375 C-100.63912842 75.50945557 -99.71575684 74.58141113 -98.7644043 73.62524414 C-93.6687966 68.54162503 -88.46409201 63.68250654 -83 59 C-81.37152983 57.52465464 -79.74598483 56.0460657 -78.125 54.5625 C-73.23663729 50.16149671 -68.18015736 46.05080191 -63 42 C-61.68989267 40.95990176 -60.38001554 39.91951353 -59.0703125 38.87890625 C-42.71232165 25.94681691 -25.64187408 14.11051748 -8 3 C-7.08089844 2.40574219 -6.16179688 1.81148437 -5.21484375 1.19921875 C-3 0 -3 0 0 0 Z " fill="#88B999" transform="translate(917,669)"/>
<path d="M0 0 C1.10408203 0.20995605 2.20816406 0.41991211 3.34570312 0.63623047 C20.33943443 3.91726917 36.65542815 8.32763949 53 14 C54.55630127 14.53197998 54.55630127 14.53197998 56.14404297 15.07470703 C71.43294028 20.31883891 86.30942249 26.26212425 101 33 C102.49998535 33.68618408 102.49998535 33.68618408 104.03027344 34.38623047 C131.92784418 47.24064736 158.71952183 62.53890957 184 80 C184.59603027 80.40976074 185.19206055 80.81952148 185.80615234 81.24169922 C205.74141238 94.98483354 224.88272078 109.83483114 243.296875 125.55126953 C244.97339988 126.97737312 246.65765292 128.3938283 248.34375 129.80859375 C260.3517502 139.92979559 271.93328111 150.61365856 282.84765625 161.91015625 C284.75960477 163.76658539 286.72229598 165.48705946 288.74609375 167.21875 C293.13068315 171.02832791 297.06665828 175.16997788 301 179.4375 C305.64601148 184.45101825 310.33489603 189.3902308 315.20776367 194.18481445 C317.59969753 196.60737654 319.80975338 199.16479835 322.02734375 201.74609375 C323.96477787 203.9597561 325.95129188 206.12225022 327.95214844 208.27856445 C332.7611782 213.4630418 337.31785187 218.77369475 341.75390625 224.28515625 C344.0883059 227.10673495 346.51990598 229.80590712 349 232.5 C353.89929085 237.83091308 358.45313521 243.36444927 363 249 C365.97 252.63 368.94 256.26 372 260 C372 304.55 372 349.1 372 395 C210.63 395 49.26 395 -117 395 C-120.96 383.78 -124.92 372.56 -129 361 C-130.85532119 356.05247683 -132.73460564 351.18681052 -134.75 346.3125 C-137.65531039 339.17867769 -140.10116955 331.91465622 -142.46386719 324.58520508 C-144.12419465 319.47011932 -145.97072041 314.48461924 -147.99951172 309.50463867 C-149.70517493 305.23465357 -151.2144219 300.89589696 -152.75 296.5625 C-157.02888096 284.5890587 -161.43878501 272.66586179 -165.875 260.75 C-166.22504089 259.80965912 -166.57508179 258.86931824 -166.93572998 257.90048218 C-171.04169952 246.87629502 -175.17899143 235.86524858 -179.375 224.875 C-186.3109577 206.69298725 -192.95743851 188.4030634 -199.65205383 170.13121033 C-203.23496309 160.35378683 -206.83441127 150.58250124 -210.4375 140.8125 C-214.40726942 130.04582278 -218.36739619 119.27574377 -222.3125 108.5 C-226.821059 96.18995897 -231.35554877 83.88953417 -235.89755249 71.59179688 C-236.669766 69.50089523 -237.44176155 67.40991307 -238.21353149 65.31884766 C-239.29919583 62.37766662 -240.3857857 59.43682923 -241.47265625 56.49609375 C-241.79925232 55.61098618 -242.12584839 54.7258786 -242.46234131 53.81394958 C-243.67199549 50.54361529 -244.88083402 47.28757766 -246.21582031 44.06591797 C-247.31739661 41.16382001 -247.2521472 39.85489561 -246 37 C-243.59142366 35.33347542 -241.42270909 34.08051688 -238.8125 32.8125 C-238.06363525 32.43375732 -237.31477051 32.05501465 -236.54321289 31.66479492 C-234.04141087 30.4152967 -231.52463957 29.20265674 -229 28 C-227.66243652 27.36191406 -227.66243652 27.36191406 -226.29785156 26.7109375 C-214.73184591 21.24113801 -203.08295843 16.20591683 -191 12 C-190.21334961 11.7205957 -189.42669922 11.44119141 -188.61621094 11.15332031 C-128.254726 -10.20965988 -62.53066437 -12.07481837 0 0 Z " fill="#85D985" transform="translate(1164,629)"/>
<path d="M0 0 C0 188.43 0 376.86 0 571 C-5.63265306 565.36734694 -5.63265306 565.36734694 -8.015625 562.6171875 C-8.53987061 562.01293945 -9.06411621 561.40869141 -9.60424805 560.78613281 C-10.14734619 560.15545898 -10.69044434 559.52478516 -11.25 558.875 C-11.82210205 558.21338867 -12.3942041 557.55177734 -12.98364258 556.87011719 C-16.27955899 553.04439251 -19.51275336 549.17740494 -22.6875 545.25 C-26.51569096 540.52271098 -30.55139118 536.02389024 -34.66796875 531.546875 C-36.62405252 529.41058251 -38.54187697 527.25219343 -40.4375 525.0625 C-43.86730702 521.11376237 -47.407737 517.26910862 -50.95288086 513.42431641 C-53.51904017 510.6356832 -56.0387074 507.81886898 -58.5 504.9375 C-62.16211643 500.70317787 -66.15387527 496.8144512 -70.15625 492.90625 C-72.33701775 490.734366 -74.34968792 488.45850177 -76.3515625 486.12109375 C-79.9422811 481.97562381 -83.83467386 478.26418609 -87.875 474.5625 C-92.32454756 470.44360689 -96.74498693 466.3217293 -101 462 C-104.16162819 458.79661446 -107.43162201 455.80008944 -110.84765625 452.87109375 C-113.38052162 450.66920171 -115.84332522 448.39804174 -118.3125 446.125 C-122.82775605 442.00778305 -127.46227785 438.09238415 -132.21875 434.2578125 C-134.99500059 432.00405851 -137.71447764 429.69262858 -140.4375 427.375 C-149.01224655 420.22013386 -158.01771699 413.63015312 -167 407 C-167.75587402 406.43877441 -168.51174805 405.87754883 -169.29052734 405.29931641 C-218.1764112 369.05727319 -272.74931562 339.90682398 -331 322 C-331.80099121 321.74702148 -332.60198242 321.49404297 -333.42724609 321.23339844 C-369.88700892 309.78226785 -408.73889665 304.75797658 -446.875 304.8125 C-448.24425629 304.81440338 -448.24425629 304.81440338 -449.64117432 304.81634521 C-492.46088314 304.92973147 -534.04967884 312.3863239 -574 328 C-575.10988281 328.42925781 -576.21976563 328.85851562 -577.36328125 329.30078125 C-590.48910408 334.58378878 -603.29711196 340.85735844 -615.62890625 347.78515625 C-618 349 -618 349 -620 349 C-624.70907934 337.4905421 -629.18934143 325.90291736 -633.56341553 314.26296997 C-641.45941316 293.25595524 -649.68089495 272.38393293 -657.98901367 251.53692627 C-658.96266085 249.09369727 -659.93553005 246.6501599 -660.90820312 244.20654297 C-667.50869761 227.62927629 -674.16476471 211.07511031 -680.89550781 194.55029297 C-683.98875944 186.95533813 -687.0698982 179.3556713 -690.13671875 171.75 C-697.72440004 152.93954989 -705.37568893 134.16249088 -713.265625 115.4765625 C-713.72001953 114.39536133 -714.17441406 113.31416016 -714.64257812 112.20019531 C-715.56902206 110.01605375 -716.51114886 107.8385146 -717.46679688 105.66699219 C-717.92634766 104.60899414 -718.38589844 103.55099609 -718.859375 102.4609375 C-719.27155273 101.52813965 -719.68373047 100.5953418 -720.10839844 99.63427734 C-721.04108196 96.87862148 -721.30295624 94.88602405 -721 92 C-719.33984375 90.33203125 -719.33984375 90.33203125 -716.9375 88.8125 C-716.0196875 88.214375 -715.101875 87.61625 -714.15625 87 C-712.59390625 86.01 -712.59390625 86.01 -711 85 C-708.63799415 83.44924382 -706.28809121 81.88048733 -703.9375 80.3125 C-703.30432861 79.89250732 -702.67115723 79.47251465 -702.01879883 79.03979492 C-694.96247087 74.34520532 -688.05919939 69.43913051 -681.15283203 64.52783203 C-678.33193596 62.52588515 -675.50204121 60.53686776 -672.67236328 58.54736328 C-656.71281784 47.31547768 -641.02029245 35.79332286 -625.52441406 23.92919922 C-621.61058115 20.938183 -617.68432697 17.96399136 -613.75 15 C-613.07630371 14.48945068 -612.40260742 13.97890137 -611.70849609 13.45288086 C-607.11637676 10 -607.11637676 10 -606 10 C-605.9039019 11.20860939 -605.9039019 11.20860939 -605.80586243 12.44163513 C-602.69376187 51.51936371 -599.54505315 90.577019 -595.26702881 129.54797363 C-595.01475899 131.86447363 -594.76879361 134.18152587 -594.52587891 136.49902344 C-592.26419804 158.04299927 -589.04062115 179.40990443 -585.64135742 200.80200195 C-585.46757065 201.90261963 -585.29378387 203.0032373 -585.11473083 204.13720703 C-584.785836 206.21645714 -584.45362203 208.29518583 -584.11756897 210.37329102 C-583.89646706 211.7717627 -583.89646706 211.7717627 -583.67089844 213.19848633 C-583.47581696 214.41366692 -583.47581696 214.41366692 -583.27679443 215.65339661 C-582.98548092 218.12308961 -582.95264428 220.51549643 -583 223 C-582.04867187 222.56171875 -581.09734375 222.1234375 -580.1171875 221.671875 C-570.31881561 217.21171015 -560.40217153 213.10839149 -550.39569092 209.13952637 C-538.18682229 204.29552807 -526.02284408 199.34599509 -513.86505127 194.37530518 C-469.61643022 176.29077906 -425.27717955 158.39651717 -380.67619324 141.19714355 C-374.05731358 138.64200214 -367.45744303 136.03906849 -360.85848999 133.4329834 C-310.40962619 113.51018582 -259.77869037 94.0663238 -209 75 C-207.69017151 74.5081723 -207.69017151 74.5081723 -206.35388184 74.00640869 C-175.76314532 62.52577088 -145.06636533 51.34036704 -114.34594727 40.21209717 C-111.09703656 39.0351523 -107.84829968 37.85772887 -104.59960938 36.68017578 C-82.44602988 28.65110949 -60.28373516 20.64667712 -38.09863281 12.70507812 C-31.3237911 10.27881433 -24.55286798 7.84458952 -17.80078125 5.35546875 C-16.23565796 4.77937866 -16.23565796 4.77937866 -14.63891602 4.19165039 C-12.79011907 3.5090345 -10.94279739 2.82240117 -9.09741211 2.13061523 C-3.3289576 0 -3.3289576 0 0 0 Z " fill="#373739" transform="translate(1536,318)"/>
<path d="M0 0 C0.66 0 1.32 0 2 0 C10.68103093 18.35698659 19.20879702 36.76296683 27.38964844 55.34960938 C29.12962625 59.29384046 30.87956443 63.23353012 32.6328125 67.171875 C32.94972046 67.88376984 33.26662842 68.59566467 33.59313965 69.32913208 C34.24905982 70.80253284 34.90498436 72.27593166 35.56091309 73.74932861 C41.9545512 88.11650751 48.32703482 102.49310796 54.6875 116.875 C55.08973785 117.78447388 55.49197571 118.69394775 55.90640259 119.63098145 C61.57814368 132.46066548 67.20496674 145.3086961 72.72924805 158.20263672 C75.1707523 163.87963034 77.68647415 169.51129741 80.3203125 175.1015625 C84.19511572 183.33141453 87.83940146 191.65821572 91.47720337 199.9949646 C93.45571992 204.52849294 95.44030273 209.05936086 97.42578125 213.58984375 C97.81950424 214.48828506 98.21322723 215.38672638 98.61888123 216.31239319 C101.97317249 223.95732892 105.38166283 231.57662979 108.8125 239.1875 C113.28309867 249.11409122 117.67296201 259.07271122 122 269.0625 C122.26817535 269.68111908 122.53635071 270.29973816 122.81265259 270.93710327 C124.55250506 274.9535103 126.28014389 278.97499335 128 283 C128.73476562 284.71485596 128.73476562 284.71485596 129.484375 286.46435547 C129.94328125 287.5473291 130.4021875 288.63030273 130.875 289.74609375 C131.28492188 290.71087646 131.69484375 291.67565918 132.1171875 292.66967773 C133 295 133 295 133 297 C130 299 130 299 127 299 C127 299.66 127 300.32 127 301 C121.58823529 305 121.58823529 305 119 305 C119 305.66 119 306.32 119 307 C117.98679687 307.48919922 117.98679687 307.48919922 116.953125 307.98828125 C115.61507813 308.64376953 115.61507813 308.64376953 114.25 309.3125 C112.92742187 309.95638672 112.92742187 309.95638672 111.578125 310.61328125 C108.98339185 311.92366072 108.98339185 311.92366072 106.796875 313.66796875 C105 315 105 315 103 315 C103 315.66 103 316.32 103 317 C102.26394531 317.38671875 101.52789063 317.7734375 100.76953125 318.171875 C95.83259035 320.80664927 91.26474043 323.3445082 87 327 C81.44444444 331 81.44444444 331 78 331 C78 331.66 78 332.32 78 333 C76.27281484 333.96189997 74.54315942 334.91936508 72.8125 335.875 C71.84957031 336.40867187 70.88664062 336.94234375 69.89453125 337.4921875 C67 339 67 339 64.19140625 340.07421875 C61.83680051 340.77653775 61.83680051 340.77653775 61.125 342.9375 C59.34254501 346.20533415 56.36667801 346.70058042 53 348 C52.01 348.66 51.02 349.32 50 350 C47.8125 350.625 47.8125 350.625 46 351 C46 351.66 46 352.32 46 353 C44.58671871 353.81837442 43.16921654 354.62946219 41.75 355.4375 C40.96109375 355.88996094 40.1721875 356.34242188 39.359375 356.80859375 C37.21166532 357.89311602 35.34794939 358.53148716 33 359 C33 359.66 33 360.32 33 361 C31.02 361.66 29.04 362.32 27 363 C27 363.66 27 364.32 27 365 C25.68 365 24.36 365 23 365 C23 365.66 23 366.32 23 367 C22.175 367.391875 21.35 367.78375 20.5 368.1875 C17.0940771 369.9512815 13.93579644 371.90845931 10.734375 374.01171875 C9 375 9 375 7 375 C7 375.66 7 376.32 7 377 C6.22914063 377.40992188 5.45828125 377.81984375 4.6640625 378.2421875 C3.66117188 378.78101563 2.65828125 379.31984375 1.625 379.875 C0.62726563 380.40867187 -0.37046875 380.94234375 -1.3984375 381.4921875 C-4.05348395 382.8820138 -4.05348395 382.8820138 -6 385 C-6.825 385.2475 -7.65 385.495 -8.5 385.75 C-12.4068379 387.14529925 -15.57080608 389.05178686 -19.08984375 391.22265625 C-22.37927121 393.23163544 -25.71336915 395.15557431 -29.0625 397.0625 C-29.66408936 397.40531006 -30.26567871 397.74812012 -30.88549805 398.10131836 C-35.5725542 400.76673323 -40.27874614 403.39578117 -45 406 C-46.54204147 406.85348984 -48.08370447 407.70766382 -49.625 408.5625 C-50.36105469 408.96984375 -51.09710937 409.3771875 -51.85546875 409.796875 C-53.89880116 410.94322543 -55.91791124 412.12499853 -57.9375 413.3125 C-61 415 -61 415 -63 415 C-63 415.66 -63 416.32 -63 417 C-63.56847656 417.24234375 -64.13695312 417.4846875 -64.72265625 417.734375 C-68.56422189 419.40183254 -72.28014624 421.09462729 -75.875 423.25 C-79 425 -79 425 -82 425 C-82 425.66 -82 426.32 -82 427 C-82.67804688 427.30292969 -83.35609375 427.60585938 -84.0546875 427.91796875 C-89.78517155 430.49748027 -95.42800015 433.18256008 -101.00390625 436.08203125 C-103 437 -103 437 -105 437 C-105 437.66 -105 438.32 -105 439 C-106.32 439 -107.64 439 -109 439 C-109 439.66 -109 440.32 -109 441 C-112.33604023 443.66883218 -115.01453645 445.14460229 -119.1875 446.0625 C-123.11282463 447.02774376 -123.42636434 447.35358801 -126 450 C-127.9453125 451.02734375 -127.9453125 451.02734375 -130.125 451.9375 C-130.91519531 452.27265625 -131.70539063 452.6078125 -132.51953125 452.953125 C-133.33808594 453.29859375 -134.15664063 453.6440625 -135 454 C-137.32115008 455.05136623 -139.63959407 456.10844829 -141.95703125 457.16796875 C-143.95531682 457.98180207 -145.89650381 458.53203119 -148 459 C-148 459.66 -148 460.32 -148 461 C-171.47572816 473 -171.47572816 473 -176 473 C-176.33 473.99 -176.66 474.98 -177 476 C-178.98 476.33 -180.96 476.66 -183 477 C-183 477.66 -183 478.32 -183 479 C-185.43504509 480.0063655 -187.87270864 481.00526413 -190.3125 482 C-191.00279297 482.28617188 -191.69308594 482.57234375 -192.40429688 482.8671875 C-195.41545674 484.08910744 -197.71886984 485 -201 485 C-201 485.66 -201 486.32 -201 487 C-211.2 493 -211.2 493 -217 493 C-217 493.66 -217 494.32 -217 495 C-217.845625 495.31453125 -218.69125 495.6290625 -219.5625 495.953125 C-225.22652342 498.09000656 -230.72042555 500.26971087 -236.078125 503.0859375 C-239.58553712 504.75409692 -243.29152888 505.86685605 -247 507 C-247 507.66 -247 508.32 -247 509 C-248.0725 509.391875 -249.145 509.78375 -250.25 510.1875 C-253.88250934 511.54003007 -257.43797192 513.03462501 -261 514.5625 C-264.54979747 516.06970171 -267.91660239 517.31936837 -271.6875 518.125 C-272.780625 518.41375 -273.87375 518.7025 -275 519 C-275.33 519.99 -275.66 520.98 -276 522 C-278.59548599 522.97182581 -281.08635378 523.77312471 -283.75 524.5 C-288.65809075 525.86826271 -292.63969276 527.30725074 -297 530 C-300.38196452 531.56061854 -303.81623302 532.99512523 -307.25 534.4375 C-309.06795967 535.20643729 -310.8856703 535.97596367 -312.703125 536.74609375 C-313.58548828 537.11847168 -314.46785156 537.49084961 -315.37695312 537.87451172 C-318.68040067 539.29194407 -321.95016654 540.77893559 -325.21386719 542.28540039 C-327 543 -327 543 -329 543 C-329 543.66 -329 544.32 -329 545 C-329.96099609 545.27263672 -329.96099609 545.27263672 -330.94140625 545.55078125 C-335.00927685 546.73294931 -338.96533929 547.90010232 -342.8125 549.6875 C-345.87055002 550.94669707 -347.74667878 551.29575647 -351 551 C-351 551.66 -351 552.32 -351 553 C-354.61973402 554.31626692 -357.09567131 555 -361 555 C-361 555.66 -361 556.32 -361 557 C-364.33333333 558.33333333 -367.66666667 559.66666667 -371 561 C-371.87269531 561.37382813 -372.74539063 561.74765625 -373.64453125 562.1328125 C-376 563 -376 563 -379 563 C-379 563.66 -379 564.32 -379 565 C-379.96421875 565.26554688 -380.9284375 565.53109375 -381.921875 565.8046875 C-383.18515625 566.15789063 -384.4484375 566.51109375 -385.75 566.875 C-387.00296875 567.22304688 -388.2559375 567.57109375 -389.546875 567.9296875 C-392.85852686 568.84671388 -392.85852686 568.84671388 -395.203125 570.1328125 C-397 571 -397 571 -401 571 C-401 571.66 -401 572.32 -401 573 C-402.155 573.28875 -403.31 573.5775 -404.5 573.875 C-405.221875 574.05546875 -405.94375 574.2359375 -406.6875 574.421875 C-408.22916667 574.80729167 -409.77083333 575.19270833 -411.3125 575.578125 C-412.034375 575.75859375 -412.75625 575.9390625 -413.5 576.125 C-414.655 576.41375 -415.81 576.7025 -417 577 C-417 577.66 -417 578.32 -417 579 C-418.175625 579.28875 -419.35125 579.5775 -420.5625 579.875 C-424.4018927 580.83313721 -428.2013318 581.89205511 -432 583 C-427.48444715 575.82375632 -422.85518341 568.74395517 -418.0625 561.75 C-417.42062744 560.8110791 -416.77875488 559.8721582 -416.11743164 558.90478516 C-409.4423905 549.15697771 -402.69890751 539.45697967 -395.93457031 529.77099609 C-394.06624719 527.09488966 -392.20085096 524.41676447 -390.3359375 521.73828125 C-384.21759466 512.96161814 -378.03561733 504.23689754 -371.75317383 495.5769043 C-368.12953184 490.57834019 -364.55086572 485.55048335 -361 480.5 C-355.28114686 472.37028548 -349.46888633 464.31038707 -343.63671875 456.26171875 C-342.01490936 454.02060267 -340.39734868 451.77648685 -338.78125 449.53125 C-332.65173519 441.01881068 -326.47023218 432.54770656 -320.23510742 424.11230469 C-316.24357678 418.70603328 -312.29796659 413.26867457 -308.375 407.8125 C-303.84842145 401.52131149 -299.24968139 395.29136097 -294.58496094 389.10205078 C-288.92397558 381.5867322 -283.35539278 374.00388079 -277.78222656 366.42333984 C-274.27403913 361.65316608 -270.76017835 356.88716839 -267.24609375 352.12133789 C-264.34897833 348.19143953 -261.45556176 344.25893286 -258.5703125 340.3203125 C-251.79946489 331.08733849 -244.92813792 321.9402476 -237.97021484 312.84741211 C-232.91056086 306.22429933 -227.94266694 299.53873095 -223.01220703 292.8190918 C-217.87475046 285.81807684 -212.67153928 278.868258 -207.45019531 271.9296875 C-206.01336592 270.01778522 -204.58026717 268.10314874 -203.1484375 266.1875 C-197.5157923 258.65503041 -191.83706154 251.159951 -186.125 243.6875 C-180.97182548 236.9454402 -175.885807 230.16098015 -170.875 223.3125 C-165.73809886 216.29478792 -160.46587668 209.39864173 -155.10449219 202.55126953 C-150.89543636 197.17041445 -146.77028133 191.73383729 -142.68579102 186.25805664 C-138.43187181 180.56017873 -134.12671907 174.90232177 -129.8125 169.25 C-124.17298544 161.85915311 -118.5606638 154.45042063 -113 147 C-108.02543677 140.33763853 -103.01606988 133.70575926 -97.93286133 127.12597656 C-94.66383861 122.88528437 -91.45183105 118.6040586 -88.25 114.3125 C-83.32180559 107.71176918 -78.28441759 101.20238629 -73.21191406 94.7121582 C-69.41818146 89.84889367 -65.68503907 84.94603456 -62 80 C-55.98640512 71.93113861 -49.80256081 63.99949323 -43.61035156 56.06738281 C-41.31177731 53.11645395 -39.02847088 50.15396548 -36.75 47.1875 C-35.9559375 46.15367187 -35.161875 45.11984375 -34.34375 44.0546875 C-33.5703125 43.04664063 -32.796875 42.03859375 -32 41 C-24.56727001 31.31267525 -17.09947502 21.6533026 -9.58300781 12.03076172 C-8.18264575 10.23430711 -6.78945848 8.4325931 -5.3984375 6.62890625 C-4.68945312 5.72011719 -3.98046875 4.81132813 -3.25 3.875 C-2.36054687 2.72644531 -2.36054687 2.72644531 -1.453125 1.5546875 C-0.97359375 1.04164062 -0.4940625 0.52859375 0 0 Z " fill="#88B899" transform="translate(681,115)"/>
<path d="M0 0 C155.1 0 310.2 0 470 0 C466.37222933 3.62777067 462.84256854 6.83205901 458.8125 9.9375 C457.9143457 10.63649414 457.9143457 10.63649414 456.99804688 11.34960938 C455.69469564 12.363327 454.39012333 13.37547621 453.08447266 14.38623047 C450.15199396 16.6565144 447.22560919 18.93460617 444.29858398 21.21191406 C442.76065112 22.40828372 441.22240005 23.60424442 439.68383789 24.79980469 C433.33334751 29.73524382 427.00477068 34.69796498 420.68554688 39.67333984 C418.37791424 41.48963123 416.06866443 43.30386009 413.75927734 45.11791992 C412.58754719 46.03842566 411.41599732 46.95916094 410.24462891 47.88012695 C407.35636637 50.1507407 404.46588395 52.41839982 401.5703125 54.6796875 C394.64012852 60.09783134 387.78189559 65.59542684 380.96801758 71.15917969 C376.6228523 74.70089138 372.23566588 78.18139086 367.8125 81.625 C362.63984544 85.65671392 357.60393687 89.82344149 352.61694336 94.08203125 C348.62680006 97.4859102 344.5656938 100.78391655 340.45703125 104.04296875 C336.86843727 106.90129241 333.32406899 109.81265026 329.77734375 112.72265625 C327.95978656 114.21300202 326.13957252 115.70011494 324.31640625 117.18359375 C318.76988892 121.69969857 313.28666585 126.2823899 307.83642578 130.91357422 C303.53888375 134.55954932 299.18342199 138.1297728 294.8125 141.6875 C291.1190609 144.7243277 287.47701514 147.81960955 283.83374023 150.91625977 C280.44045891 153.7954532 277.01732214 156.63204237 273.5625 159.4375 C268.14143044 163.8514623 262.84158026 168.39782805 257.54296875 172.95703125 C254.18857324 175.84230617 250.81704129 178.70674413 247.4375 181.5625 C246.90455322 182.01294678 246.37160645 182.46339355 245.82250977 182.92749023 C243.68066713 184.73707308 241.53807327 186.54576529 239.39550781 188.35449219 C216.32852277 207.77228091 216.32852277 207.77228091 193.75 227.75 C190.47850165 230.71967972 187.13030428 233.54339555 183.6875 236.3125 C178.23623899 240.72138108 173.12286502 245.4352398 168 250.21484375 C165.04123978 252.97346339 162.01604915 255.64611326 158.95703125 258.29296875 C156.6144085 260.33633431 154.30726578 262.41680859 152 264.5 C148.38323655 267.76390848 144.73610392 270.98790949 141.0625 274.1875 C137.82348414 277.03390787 134.63036144 279.93095031 131.4296875 282.8203125 C129.3439382 284.69145094 127.24182372 286.53924831 125.125 288.375 C121.15669451 291.82919304 117.28987441 295.39130558 113.42016602 298.95483398 C110.66561908 301.487107 107.89274925 303.99020203 105.0625 306.4375 C100.93011239 310.02004809 96.9290721 313.73967128 92.91821289 317.45678711 C89.63497817 320.49741594 86.33332232 323.51412496 83 326.5 C78.61392863 330.43185038 74.28092695 334.41811207 69.95703125 338.41796875 C66.31354512 341.78840674 62.66113798 345.14874839 59 348.5 C50.12836468 356.62565449 41.29012735 364.78620063 32.5 373 C26.20520728 378.88164903 19.89403863 384.74484551 13.55078125 390.57421875 C12.49525668 391.54466325 11.44060213 392.5160547 10.38671875 393.48828125 C8.8434536 394.9113895 7.29718357 396.33115424 5.75 397.75 C4.85796875 398.56984375 3.9659375 399.3896875 3.046875 400.234375 C1 402 1 402 0 402 C0 269.34 0 136.68 0 0 Z " fill="#85D985" transform="translate(0,0)"/>
<path d="M0 0 C4.59066615 11.66457712 9.02196425 23.37736994 13.30697632 35.15756226 C14.28528301 37.84699546 15.26602459 40.53553087 16.24731445 43.22387695 C17.56820727 46.84312448 18.88830969 50.46265822 20.20751953 54.08251953 C38.8506351 105.23497382 57.82923984 156.26838007 76.97003174 207.23657227 C82.62843432 222.30610968 88.28126585 237.37768289 93.86273193 252.47592163 C94.43911696 254.03440537 95.01641697 255.59255112 95.5947876 257.15029907 C98.88934538 266.02850009 102.03842388 274.93755947 104.965271 283.94454956 C106.30741239 288.04909805 107.77845646 292.03421686 109.5 296 C111.95440204 301.66643301 113.88722002 307.45630835 115.76953125 313.33203125 C117.30916348 318.09633766 119.06016702 322.72908465 120.94506836 327.3671875 C122.80996912 332.02145499 124.52844726 336.72873445 126.25 341.4375 C126.79527344 342.90606445 126.79527344 342.90606445 127.3515625 344.40429688 C127.86589844 345.81098633 127.86589844 345.81098633 128.390625 347.24609375 C128.70032227 348.08841553 129.01001953 348.9307373 129.32910156 349.79858398 C130 352 130 352 130 355 C-11.9 355 -153.8 355 -300 355 C-294.82451832 345.94290705 -289.63222863 336.90881675 -284.3125 327.9375 C-283.79867767 327.07084213 -283.79867767 327.07084213 -283.2744751 326.18667603 C-273.32658015 309.42063502 -262.99495983 292.90616047 -252.49609375 276.48046875 C-250.26641056 272.99141041 -248.04956794 269.49492733 -245.84765625 265.98828125 C-223.25675843 230.08946723 -199.27209951 195.05929894 -174 161 C-173.46552246 160.2795752 -172.93104492 159.55915039 -172.38037109 158.81689453 C-162.62283045 145.68539412 -152.67825327 132.78805947 -141.95703125 120.42578125 C-140.05625628 118.23324505 -138.17774688 116.02558081 -136.32421875 113.79296875 C-125.43293393 100.68132723 -113.58931696 88.50314486 -101.5625 76.4375 C-100.63912842 75.50945557 -99.71575684 74.58141113 -98.7644043 73.62524414 C-93.6687966 68.54162503 -88.46409201 63.68250654 -83 59 C-81.37152983 57.52465464 -79.74598483 56.0460657 -78.125 54.5625 C-73.23663729 50.16149671 -68.18015736 46.05080191 -63 42 C-61.68989267 40.95990176 -60.38001554 39.91951353 -59.0703125 38.87890625 C-42.71232165 25.94681691 -25.64187408 14.11051748 -8 3 C-7.08089844 2.40574219 -6.16179687 1.81148437 -5.21484375 1.19921875 C-3 0 -3 0 0 0 Z " fill="#484944" transform="translate(917,669)"/>
<path d="M0 0 C106.26 0 212.52 0 322 0 C320.87554467 8.99564261 320.87554467 8.99564261 320.19970703 13.14892578 C320.04929962 14.07834991 319.89889221 15.00777405 319.743927 15.96536255 C319.50330032 17.44043777 319.50330032 17.44043777 319.2578125 18.9453125 C318.91008736 21.09764512 318.56243354 23.24998927 318.21484375 25.40234375 C317.67404849 28.740892 317.13243433 32.07930291 316.58935547 35.41748047 C312.88646586 58.20370731 309.75563056 80.96789887 307.4375 103.9375 C307.2755011 105.52436111 307.2755011 105.52436111 307.11022949 107.14328003 C305.42027444 123.75413775 304.04248897 140.34594286 303.21777344 157.02368164 C303.05492762 159.24930195 302.80913101 161.46912687 302.5216217 163.68209839 C299.48191618 187.71842605 299.83378691 212.38883651 300.26495743 236.55390549 C300.33223898 240.38291596 300.38963172 244.2119549 300.44406128 248.04116821 C300.4814754 250.62184815 300.51900228 253.20252645 300.55664062 255.78320312 C300.57530245 257.06590277 300.59396427 258.34860241 300.6131916 259.67017174 C300.71452063 266.27105749 300.84285884 272.86983916 301.02172852 279.46899414 C301.19814526 285.98925846 301.29466269 292.50807408 301.3452816 299.03053474 C301.37775027 301.48007997 301.4369863 303.92943732 301.52482033 306.3776226 C302.16784585 324.76872544 302.16784585 324.76872544 298.54130173 330.17425728 C295.09373967 333.85227573 291.17517131 336.51693528 286.79545212 338.97076607 C284.33013907 340.38399442 282.13577071 342.09214832 279.90625 343.84765625 C278.43993938 344.92260627 276.97122144 345.994281 275.5 347.0625 C274.70158691 347.64628418 273.90317383 348.23006836 273.08056641 348.83154297 C271.47420666 350.0059512 269.86697554 351.17916869 268.25878906 352.35107422 C266.18588593 353.86430246 264.11880947 355.3849819 262.0546875 356.91015625 C254.94090565 362.16256237 247.76329781 367.31392109 240.52441406 372.39257812 C236.95044966 374.90349255 233.39299187 377.43206415 229.87109375 380.015625 C217.35595111 389.18923327 204.47948855 397.77853621 191.53344727 406.3269043 C187.2429912 409.09790989 187.2429912 409.09790989 184 413 C183.77562256 412.45102051 183.55124512 411.90204102 183.32006836 411.33642578 C176.23263184 394.04767029 168.74054095 376.95429021 161.16259766 359.87695312 C157.59555224 351.83628864 154.04359312 343.78894723 150.48928833 335.74264526 C149.25355228 332.94554064 148.01734478 330.14864483 146.78100586 327.35180664 C142.55075082 317.78125006 138.33002544 308.20667105 134.125 298.625 C130.08849071 289.42965381 125.98305658 280.26607781 121.86447144 271.10726929 C117.58049947 261.57580774 113.36499941 252.016065 109.1875 242.4375 C101.54586915 224.91930017 93.78798079 207.45356701 86 190 C85.56397461 189.02256836 85.56397461 189.02256836 85.11914062 188.02539062 C77.54968339 171.05936579 69.89897768 154.13104527 62.20018005 137.22340393 C61.61605883 135.94026507 61.03235791 134.65693477 60.44911194 133.37339783 C59.12768251 130.46686778 57.797887 127.56476802 56.453125 124.66894531 C55.76476562 123.18152832 55.76476562 123.18152832 55.0625 121.6640625 C54.66160156 120.80506348 54.26070312 119.94606445 53.84765625 119.06103516 C53 117 53 117 53 115 C52.01 114.505 52.01 114.505 51 114 C49.75907795 111.30922516 48.61674407 108.6177423 47.5 105.875 C43.06249992 95.25632557 38.27956085 84.81372858 33.4375 74.375 C32.65573416 72.68848934 31.87399607 71.00196581 31.09228516 69.31542969 C29.90562813 66.75528053 28.71895341 64.19513988 27.53186035 61.63519287 C23.11909973 52.11231122 18.76157128 42.56426172 14.41305542 33.01190186 C13.49231319 30.989341 12.5706094 28.96722187 11.6484375 26.9453125 C11.35584549 26.30294647 11.06325348 25.66058044 10.76179504 24.99874878 C9.12367102 21.41470599 7.45731666 17.8457934 5.76269531 14.28808594 C5.20650009 13.11836746 5.20650009 13.11836746 4.6390686 11.92501831 C3.91924576 10.41481821 3.1960481 8.90622092 2.46908569 7.39944458 C0 2.22013319 0 2.22013319 0 0 Z " fill="#494A44" transform="translate(630,0)"/>
<path d="M0 0 C109.56 0 219.12 0 332 0 C326.35171371 7.53104839 320.7206225 14.43939232 314 21 C307.77408421 27.04397666 307.77408421 27.04397666 302.0625 33.5625 C301.381875 34.366875 300.70125 35.17125 300 36 C299.34 36 298.68 36 298 36 C298 36.66 298 37.32 298 38 C297.34 38 296.68 38 296 38 C295.67708984 38.81597656 295.67708984 38.81597656 295.34765625 39.6484375 C293.53620359 42.80929113 291.04503977 45.12763796 288.4375 47.625 C284.77285984 50.96402902 284.77285984 50.96402902 282 55 C281.34 55 280.68 55 280 55 C280 55.66 280 56.32 280 57 C279.34 57 278.68 57 278 57 C278 57.66 278 58.32 278 59 C276.625 60.625 276.625 60.625 275 62 C274.34 62 273.68 62 273 62 C272.73832031 62.5775 272.47664063 63.155 272.20703125 63.75 C269.11282925 69.51783286 264.14849993 74.07088163 259 78 C256.13833918 80.71490898 253.52553788 83.53960555 251 86.5625 C248.56804854 89.44227883 245.99445392 91.69657391 243 94 C240.13833918 96.71490898 237.52553788 99.53960555 235 102.5625 C232.56804854 105.44227883 229.99445392 107.69657391 227 110 C224.35477152 112.59574292 221.76335745 115.24165484 219.17578125 117.89453125 C218.2213791 118.86721196 217.26695188 119.83986808 216.3125 120.8125 C215.82716797 121.31458984 215.34183594 121.81667969 214.84179688 122.33398438 C213.59875394 123.59417273 212.30300108 124.80191044 211 126 C210.34 126 209.68 126 209 126 C209 126.66 209 127.32 209 128 C207.5390625 129.5078125 207.5390625 129.5078125 205.625 131.125 C204.99851562 131.66382813 204.37203125 132.20265625 203.7265625 132.7578125 C202 134 202 134 200 134 C199.773125 134.55171875 199.54625 135.1034375 199.3125 135.671875 C197.61274074 138.68692417 195.45195184 140.81230369 193 143.25 C191.6696875 144.58804688 191.6696875 144.58804688 190.3125 145.953125 C188 148 188 148 186 148 C186 148.66 186 149.32 186 150 C185.34 150 184.68 150 184 150 C183.34 151.32 182.68 152.64 182 154 C181.34 154 180.68 154 180 154 C180 154.66 180 155.32 180 156 C178.390625 157.65625 178.390625 157.65625 176.25 159.5 C175.55390625 160.1084375 174.8578125 160.716875 174.140625 161.34375 C172.15539208 162.87976963 170.28127955 163.9723966 168 165 C168 165.66 168 166.32 168 167 C166.3203125 168.7265625 166.3203125 168.7265625 164.125 170.625 C163.40570312 171.25664062 162.68640625 171.88828125 161.9453125 172.5390625 C160 174 160 174 158 174 C158 174.66 158 175.32 158 176 C156.35648543 177.36176922 154.68477344 178.68962066 153 180 C150.71830265 182.22737122 148.48514077 184.47892287 146.3125 186.8125 C145 188 145 188 143 188 C142.34 189.32 141.68 190.64 141 192 C140.01 192 139.02 192 138 192 C138 192.66 138 193.32 138 194 C137.34 194 136.68 194 136 194 C136 194.66 136 195.32 136 196 C134.390625 197.62109375 134.390625 197.62109375 132.25 199.4375 C131.55390625 200.03433594 130.8578125 200.63117188 130.140625 201.24609375 C124.33853007 206 124.33853007 206 122 206 C122 206.66 122 207.32 122 208 C121.34 208 120.68 208 120 208 C119.77054688 208.56332031 119.54109375 209.12664062 119.3046875 209.70703125 C117.65068125 212.61392248 115.61103363 214.45597129 113.125 216.6875 C112.26132813 217.47511719 111.39765625 218.26273438 110.5078125 219.07421875 C108.18721902 220.85623213 106.84989312 221.60896815 104 222 C104 222.66 104 223.32 104 224 C103.34 224 102.68 224 102 224 C102 224.66 102 225.32 102 226 C100.28667246 227.58533702 98.50310953 229.09541215 96.6875 230.5625 C95.20830078 231.77099609 95.20830078 231.77099609 93.69921875 233.00390625 C91 235 91 235 88 236 C88 236.66 88 237.32 88 238 C87.34 238 86.68 238 86 238 C86 238.66 86 239.32 86 240 C83.953125 241.875 83.953125 241.875 81.25 244 C80.36828125 244.70125 79.4865625 245.4025 78.578125 246.125 C76.42201936 247.69307683 74.42251379 248.91326484 72 250 C72 250.66 72 251.32 72 252 C69.90937476 253.76227055 67.8078577 255.42143676 65.625 257.0625 C60.11423617 261.27830444 54.93547769 265.64874543 49.890625 270.41796875 C48 272 48 272 46 272 C45.731875 272.639375 45.46375 273.27875 45.1875 273.9375 C44 276 44 276 41 277 C39.97702078 277.97648017 38.98095748 278.98131338 38 280 C33.31428571 284 33.31428571 284 31 284 C31 284.66 31 285.32 31 286 C30.34 286 29.68 286 29 286 C29 286.66 29 287.32 29 288 C28.01 288 27.02 288 26 288 C26 288.66 26 289.32 26 290 C25.34 290 24.68 290 24 290 C24 290.66 24 291.32 24 292 C23.4225 292.2475 22.845 292.495 22.25 292.75 C19.67317108 294.18157162 18.07853075 295.91023395 16 298 C14.37541869 299.40004568 12.72861695 300.77464943 11.0625 302.125 C10.22847656 302.80820312 9.39445313 303.49140625 8.53515625 304.1953125 C6.07533909 305.94636878 3.84119189 307.01396918 1 308 C1 308.66 1 309.32 1 310 C-1.08203125 311.9453125 -1.08203125 311.9453125 -3.8125 314.125 C-4.70582031 314.84945313 -5.59914063 315.57390625 -6.51953125 316.3203125 C-9 318 -9 318 -12 318 C-12 318.66 -12 319.32 -12 320 C-15.15535787 322.86850715 -18.04322598 325.32598022 -22 327 C-23.16518183 324.66963634 -23.12815737 323.31653566 -23.13371277 320.72096252 C-23.13797775 319.82114151 -23.14224274 318.9213205 -23.14663696 317.99423218 C-23.14618378 317.00299347 -23.14573059 316.01175476 -23.14526367 314.99047852 C-23.14862228 313.94735001 -23.1519809 312.9042215 -23.15544128 311.82948303 C-23.16500654 308.34594551 -23.16689987 304.86245614 -23.16796875 301.37890625 C-23.17118714 298.92886842 -23.17455164 296.47883078 -23.17805481 294.02879333 C-23.1840665 288.85423339 -23.18589358 283.67969015 -23.18530273 278.50512695 C-23.1852227 273.28341108 -23.19195725 268.0617852 -23.20581055 262.84008789 C-23.30803502 223.77393753 -22.75867931 184.82269092 -19.34033203 145.88476562 C-19.07879612 142.89942887 -18.82229248 139.91384108 -18.56982422 136.92773438 C-18.15840901 132.06411197 -17.74068008 127.20106348 -17.31903076 122.33831787 C-17.15206271 120.40958458 -16.98619296 118.48075579 -16.82159424 116.55181885 C-14.97031812 94.95550359 -12.17079867 73.5026533 -9.05761719 52.05493164 C-8.62562367 49.06681392 -8.20340358 46.07741224 -7.78125 43.08789062 C-5.67813712 28.56030685 -2.88875221 14.44376106 0 0 Z " fill="#85D985" transform="translate(952,0)"/>
<path d="M0 0 C45.87 0 91.74 0 139 0 C137.5943517 2.8112966 136.43668842 4.91917224 134.6015625 7.36328125 C133.89193359 8.31074219 133.89193359 8.31074219 133.16796875 9.27734375 C132.40419922 10.28474609 132.40419922 10.28474609 131.625 11.3125 C130.82642578 12.37210938 130.82642578 12.37210938 130.01171875 13.453125 C125.93783992 18.83064505 121.7444672 24.10358182 117.50463867 29.35058594 C113.88283593 33.84970514 110.38587847 38.42940255 106.9375 43.0625 C102.354994 49.21936389 97.67351034 55.28396479 92.9140625 61.3046875 C89.58484299 65.5174041 86.29278265 69.75878185 83 74 C76.36705229 82.54346648 76.36705229 82.54346648 73.0859375 86.6953125 C72.63275146 87.26878418 72.17956543 87.84225586 71.71264648 88.43310547 C70.82983885 89.54970647 69.946548 90.66592563 69.06274414 91.78173828 C66.5616457 94.95669098 64.12170412 98.16897622 61.72265625 101.421875 C61.17496582 102.1629248 60.62727539 102.90397461 60.06298828 103.66748047 C58.99688613 105.115317 57.93644963 106.56734622 56.88232422 108.02392578 C55.63522707 109.71824617 54.32327924 111.36448634 53 113 C52.34 113 51.68 113 51 113 C48.64515766 107.85447562 46.29114313 102.70857302 43.9375 97.5625 C43.57653229 96.77337219 43.21556458 95.98424438 42.84365845 95.17120361 C38.97326736 86.70898029 35.10619274 78.24533903 31.265625 69.76953125 C30.96903488 69.1151709 30.67244476 68.46081055 30.36686707 67.78662109 C29.92362846 66.80870605 29.92362846 66.80870605 29.47143555 65.81103516 C29.17715668 65.16177063 28.88287781 64.5125061 28.5796814 63.84356689 C27.98403464 62.52929327 27.38851498 61.21496204 26.79312134 59.90057373 C22.86406585 51.23161467 18.88755166 42.58586234 14.87109375 33.95703125 C14.43526474 33.02004395 13.99943573 32.08305664 13.55039978 31.11767578 C11.39879761 26.4932832 9.24303013 21.87090255 7.08081055 17.25146484 C6.29594506 15.56743693 5.51119022 13.88335745 4.7265625 12.19921875 C4.18236916 11.04218193 4.18236916 11.04218193 3.62718201 9.86177063 C3.29468948 9.14643661 2.96219696 8.4311026 2.61962891 7.6940918 C2.32955963 7.07414841 2.03949036 6.45420502 1.7406311 5.81547546 C1 4 1 4 0 0 Z " fill="#85D985" transform="translate(630,0)"/>
<path d="M0 0 C4.82464874 1.56824147 8.3517695 4.31613167 12.3125 7.375 C13.73162383 8.45592219 15.15089927 9.53664536 16.5703125 10.6171875 C17.29766602 11.17374023 18.02501953 11.73029297 18.77441406 12.30371094 C22.39281868 15.06157352 26.04181188 17.77837337 29.6875 20.5 C30.98377758 21.4678069 32.27938915 22.4365067 33.57421875 23.40625 C34.11651123 23.81166016 34.65880371 24.21707031 35.2175293 24.63476562 C37.50605009 26.38759514 39.74901935 28.19921548 42 30 C22.2 30 2.4 30 -18 30 C-8.7972973 13.89527027 -8.7972973 13.89527027 -4.5 7.125 C-4.05914063 6.42503906 -3.61828125 5.72507812 -3.1640625 5.00390625 C-2.11197824 3.33429427 -1.05641086 1.66687779 0 0 Z " fill="#373839" transform="translate(635,994)"/>
<path d="M0 0 C0.99 0 1.98 0 3 0 C3.18451025 13.6332574 3.18451025 13.6332574 2 20 C1.67 20 1.34 20 1 20 C0.67 13.4 0.34 6.8 0 0 Z " fill="#7ED27E" transform="translate(934,129)"/>
<path d="M0 0 C0.99 0.33 1.98 0.66 3 1 C3 4.63 3 8.26 3 12 C2.01 12.495 2.01 12.495 1 13 C0.34 12.34 -0.32 11.68 -1 11 C-0.9765625 8.3984375 -0.9765625 8.3984375 -0.625 5.375 C-0.51414062 4.37210937 -0.40328125 3.36921875 -0.2890625 2.3359375 C-0.19367187 1.56507812 -0.09828125 0.79421875 0 0 Z " fill="#7CC97C" transform="translate(940,73)"/>
<path d="M0 0 C0.99 0.33 1.98 0.66 3 1 C1.9318153 6.11365014 0.76892524 11.07227969 -1 16 C-2.26823485 12.34606463 -1.75715321 9.50929974 -1.0625 5.75 C-0.86785156 4.67234375 -0.67320312 3.5946875 -0.47265625 2.484375 C-0.31667969 1.66453125 -0.16070313 0.8446875 0 0 Z " fill="#81C880" transform="translate(948,20)"/>
<path d="M0 0 C-1 3 -1 3 -3.28515625 4.38671875 C-4.20167969 4.81597656 -5.11820313 5.24523437 -6.0625 5.6875 C-6.98160156 6.12449219 -7.90070312 6.56148438 -8.84765625 7.01171875 C-9.55792969 7.33785156 -10.26820313 7.66398437 -11 8 C-11.33 7.34 -11.66 6.68 -12 6 C-10.37829621 4.99466333 -8.75252763 3.99588093 -7.125 3 C-5.76761719 2.1646875 -5.76761719 2.1646875 -4.3828125 1.3125 C-2 0 -2 0 0 0 Z " fill="#87CF8D" transform="translate(755,450)"/>
<path d="M0 0 C-1 3 -1 3 -3.3125 4.25 C-6.16597407 5.04631835 -7.24802325 4.8214856 -10 4 C-8.71086513 3.32845067 -7.41859796 2.66291141 -6.125 2 C-5.40570313 1.62875 -4.68640625 1.2575 -3.9453125 0.875 C-2 0 -2 0 0 0 Z " fill="#86CD8E" transform="translate(515,584)"/>
</svg>
