<?xml version="1.0" encoding="UTF-8"?>
<svg version="1.1" xmlns="http://www.w3.org/2000/svg" width="254" height="280">
<path d="M0 0 C0.79792969 0.66515625 1.59585938 1.3303125 2.41796875 2.015625 C23.95504894 20.58092203 38.34156449 47.80591507 41.71875 76.08984375 C43.97860724 107.50813671 37.85394492 135.36526489 18.63671875 160.8046875 C16.57345863 163.53872693 16.57345863 163.53872693 16.07373047 166.81542969 C17.44576686 170.05132362 19.83168967 172.17866572 22.3203125 174.578125 C22.85719696 175.10839294 23.39408142 175.63866089 23.94723511 176.18499756 C25.66619668 177.88058651 27.39495067 179.56573192 29.125 181.25 C31.3814212 183.45967922 33.63349359 185.6737175 35.8828125 187.890625 C36.69706696 188.69185791 36.69706696 188.69185791 37.527771 189.50927734 C41.03507194 192.98194327 44.35273196 196.56082785 47.55029297 200.32324219 C49.73987567 202.8557538 52.10460708 205.16096927 54.5 207.5 C58.30472477 211.24758897 61.91361534 215.09654173 65.37890625 219.16015625 C67.60979962 221.69208583 70.01520442 224.02731786 72.421875 226.390625 C74.45508542 228.46409701 76.2475974 230.68682856 78 233 C76.6849467 235.96584791 75.34789428 237.8452677 72.8828125 239.9453125 C72.27566406 240.46480469 71.66851562 240.98429687 71.04296875 241.51953125 C70.41003906 242.04933594 69.77710938 242.57914062 69.125 243.125 C68.49980469 243.66253906 67.87460938 244.20007813 67.23046875 244.75390625 C61.54598029 249.5731026 61.54598029 249.5731026 58 251 C57.34 250.67 56.68 250.34 56 250 C56 249.34 56 248.68 56 248 C55.01 247.67 54.02 247.34 53 247 C51.58062744 245.56062317 51.58062744 245.56062317 50.03222656 243.66333008 C45.16311269 237.93011792 39.81190932 232.68749364 34.484375 227.38671875 C33.38033403 226.28454769 32.27651721 225.18215205 31.1729126 224.07954407 C28.28953051 221.19994927 25.4031587 218.32337008 22.51611328 215.44744873 C19.57401956 212.51562427 16.63478674 209.58093474 13.6953125 206.64648438 C8.53640596 201.49710795 3.37503796 196.35021031 -1.78814697 191.2051239 C-3.5269609 189.47159997 -5.26454787 187.73688796 -7 186 C-7.89525391 186.63615234 -7.89525391 186.63615234 -8.80859375 187.28515625 C-30.53761967 201.97565669 -56.97698201 207.59094329 -82.91796875 204.5390625 C-86.35018188 203.85503409 -89.64613918 203.00053725 -93 202 C-93.71140137 201.79068848 -94.42280273 201.58137695 -95.15576172 201.36572266 C-122.81973349 193.09987531 -146.87537212 175.00223018 -161 149.4453125 C-176.91575995 119.55989026 -180.46194884 86.43215748 -170.8125 53.9375 C-165.71088027 37.90553157 -157.05984283 23.28183578 -145.75 10.875 C-145.24243164 10.3178833 -144.73486328 9.7607666 -144.21191406 9.18676758 C-141.68925255 6.50696076 -139.46636375 4.33702602 -136 3 C-136 2.34 -136 1.68 -136 1 C-95.95878587 -31.05957676 -39.97894874 -34.20502378 0 0 Z M-135.875 23 C-140.18297688 27.99976879 -143.72866322 33.27516063 -147 39 C-147.8971875 40.55460937 -147.8971875 40.55460937 -148.8125 42.140625 C-155.30415574 54.17257313 -159.70599679 68.24484978 -160 82 C-160.03867188 83.18464844 -160.07734375 84.36929688 -160.1171875 85.58984375 C-160.55148019 104.74828806 -157.59853972 123.15944827 -148 140 C-147.32324219 141.22589844 -147.32324219 141.22589844 -146.6328125 142.4765625 C-141.13434567 152.07658837 -134.53279593 159.98908551 -126 167 C-125.36707031 167.56976563 -124.73414063 168.13953125 -124.08203125 168.7265625 C-123.47746094 169.27054688 -122.87289062 169.81453125 -122.25 170.375 C-121.45335938 171.09816406 -121.45335938 171.09816406 -120.640625 171.8359375 C-118.76481845 173.31633289 -118.76481845 173.31633289 -115 174 C-115 161.79 -115 149.58 -115 137 C-115.66 137 -116.32 137 -117 137 C-117 136.67 -117 136.34 -117 136 C-117.89203125 135.97421875 -118.7840625 135.9484375 -119.703125 135.921875 C-120.87359375 135.86515625 -122.0440625 135.8084375 -123.25 135.75 C-124.41015625 135.70359375 -125.5703125 135.6571875 -126.765625 135.609375 C-130.5031141 134.90521039 -131.67776096 133.94150278 -134 131 C-135.36623674 128.26752652 -135.128426 126.01801098 -135 123 C-134.67 122.67 -134.34 122.34 -134 122 C-132.0390625 122.0859375 -132.0390625 122.0859375 -129.625 122.375 C-128.83351563 122.46523437 -128.04203125 122.55546875 -127.2265625 122.6484375 C-125 123 -125 123 -122 124 C-120.51155284 124.08650584 -119.01951743 124.11770173 -117.52856445 124.11352539 C-116.62785721 124.11344986 -115.72714996 124.11337433 -114.79914856 124.11329651 C-113.34589424 124.10555458 -113.34589424 124.10555458 -111.86328125 124.09765625 C-110.86870407 124.0962413 -109.87412689 124.09482635 -108.84941101 124.09336853 C-105.67041018 124.08776761 -102.49147957 124.07521496 -99.3125 124.0625 C-97.15820414 124.05748512 -95.00390718 124.05292219 -92.84960938 124.04882812 C-87.56638226 124.03779788 -82.28319615 124.02105886 -77 124 C-77.25561323 121.6568787 -77.59270772 119.32156597 -78 117 C-81.04224155 115.47887923 -84.22973247 115.80166305 -87.5703125 115.75390625 C-89.12240087 115.72093925 -90.67448406 115.68772813 -92.2265625 115.65429688 C-94.66857989 115.60710931 -97.1105808 115.56273346 -99.55273438 115.52319336 C-101.9129934 115.48310352 -104.27280622 115.43162331 -106.6328125 115.37890625 C-107.35083038 115.3704921 -108.06884827 115.36207794 -108.80862427 115.35340881 C-114.73919372 115.21112646 -120.83747676 114.83814476 -125.5 110.875 C-128.05539745 105.97715489 -127.33196085 101.34788437 -126.05371094 96.15771484 C-125.62666626 94.83793396 -125.18636672 93.52238412 -124.734375 92.2109375 C-124.4997052 91.50401764 -124.2650354 90.79709778 -124.02325439 90.0687561 C-123.52797211 88.5862062 -123.02681141 87.10560817 -122.52001953 85.62695312 C-121.75127373 83.37872507 -121.00527104 81.12385643 -120.26171875 78.8671875 C-119.77477176 77.41882157 -119.28653354 75.97088897 -118.796875 74.5234375 C-118.57690857 73.85766693 -118.35694214 73.19189636 -118.13031006 72.50595093 C-116.27095588 67.14236376 -113.86247618 61.39778151 -108.625 58.625 C-102.72291922 55.98459544 -96.30944626 56.27080609 -90 57 C-81.50996716 60.48697777 -77.45819987 70.75555788 -73.4921875 78.51953125 C-71.90321877 81.16087979 -70.37214219 83.03220023 -68 85 C-64.09187592 85.56730833 -61.59927037 85.91435078 -58.1484375 83.94140625 C-56.27037677 82.50259238 -56.27037677 82.50259238 -54 80 C-54 79.34 -54 78.68 -54 78 C-50.90892553 80.41490193 -50.06516999 81.54381009 -49.5 85.5 C-50.07250265 89.50751858 -50.98690682 90.45770263 -54 93 C-54 93.66 -54 94.32 -54 95 C-62.2354161 98.41617261 -70.38416735 99.74594519 -78.875 96.375 C-85.7200046 93.32988388 -89.06724915 86.48002633 -92.3125 80.125 C-92.67150391 79.43664062 -93.03050781 78.74828125 -93.40039062 78.0390625 C-94.27346324 76.36276308 -95.1376755 74.68185374 -96 73 C-96.66 73 -97.32 73 -98 73 C-99.34569019 76.89167518 -100.67436 80.78895398 -102 84.6875 C-102.3815625 85.79029297 -102.763125 86.89308594 -103.15625 88.02929688 C-103.5171875 89.09599609 -103.878125 90.16269531 -104.25 91.26171875 C-104.58515625 92.24100342 -104.9203125 93.22028809 -105.265625 94.22924805 C-105.98813738 96.95524304 -106.14322738 99.19587639 -106 102 C-101.69089736 102.78347321 -97.63341376 103.04566056 -93.25 103 C-74.72525895 102.90737629 -74.72525895 102.90737629 -68 108 C-60.84629318 115.84643076 -59.65466877 127.07319863 -57.75 137.1875 C-57.5746875 138.10136475 -57.399375 139.01522949 -57.21875 139.95678711 C-56.13402702 146.02828342 -55.79022378 151.83740725 -56 158 C-59.28015891 159.77322244 -61.02972904 160.17209867 -64.75 159.625 C-65.54921875 159.51414063 -66.3484375 159.40328125 -67.171875 159.2890625 C-68.07679687 159.14597656 -68.07679687 159.14597656 -69 159 C-71.78862529 151.29808253 -73.24134334 144.20706444 -75 136 C-84.9 136 -94.8 136 -105 136 C-105 150.85 -105 165.7 -105 181 C-84.08827871 191.45586065 -60.75338741 192.40870144 -38.62426758 185.08813477 C-13.22121965 176.14725497 5.530777 156.91084485 17.31958008 133.02172852 C20.3643883 126.5572351 22.42163053 119.96974729 24 113 C24.22429687 112.05253906 24.44859375 111.10507813 24.6796875 110.12890625 C28.06282932 93.42174701 26.6801987 75.04444184 21 59 C20.62101563 57.865625 20.24203125 56.73125 19.8515625 55.5625 C19.44679687 54.386875 19.04203125 53.21125 18.625 52 C18.22539062 50.824375 17.82578125 49.64875 17.4140625 48.4375 C15.96484535 44.91454119 14.17925557 42.11322224 12 39 C11.13907957 37.46209466 10.28462869 35.92054514 9.4375 34.375 C-2.96875682 13.59373858 -23.83582588 -0.1163187 -46.6640625 -6.77734375 C-52.03109896 -8.07643208 -57.49662575 -8.64925384 -63 -9 C-63.81855469 -9.05414063 -64.63710937 -9.10828125 -65.48046875 -9.1640625 C-93.00442479 -10.08013971 -117.47514074 3.38593683 -135.875 23 Z " fill="#5F6063" transform="translate(176,26)"/>
<path d="M0 0 C7.30044037 7.30044037 13.22967679 16.68903038 16.5 26.5 C23.15381976 27.17346798 23.15381976 27.17346798 29 24.625 C29.495 23.92375 29.99 23.2225 30.5 22.5 C31.16 21.84 31.82 21.18 32.5 20.5 C35.5 21.5 35.5 21.5 37.5 24.5 C38.09730133 29.02242438 37.88800976 30.92352836 35.3125 34.75 C30.05636048 39.88933642 25.55156062 41.61402648 18.3125 41.8125 C11.87720448 41.72669606 6.89170326 40.24719908 1.85546875 36.16796875 C-2.25121277 31.88791809 -4.66153055 26.53607494 -7.14111328 21.21142578 C-8.60656608 17.7199633 -8.60656608 17.7199633 -11.5 15.5 C-11.67015625 16.14324219 -11.8403125 16.78648438 -12.015625 17.44921875 C-13.73738811 23.86919715 -15.6245297 30.21847742 -17.6328125 36.5546875 C-18.41024188 39.19514586 -19.01060444 41.79334294 -19.5 44.5 C-18.25605469 44.48839844 -17.01210937 44.47679687 -15.73046875 44.46484375 C12.6008011 44.27116462 12.6008011 44.27116462 21.25 51.9375 C26.89534895 59.62197164 28.02144408 70.53822047 29.75 79.6875 C29.92539307 80.60144531 30.10078613 81.51539063 30.28149414 82.45703125 C31.34094216 88.38951275 32.24736853 94.47593309 31.5 100.5 C29.18841201 103.10985741 27.68898476 103.42087317 24.26953125 103.6484375 C19.76122302 103.48663851 19.76122302 103.48663851 17.5 102.5 C14.85850945 98.34908628 13.78949604 94.16176367 12.8125 89.375 C12.43544922 87.57675781 12.43544922 87.57675781 12.05078125 85.7421875 C11.5 82.5 11.5 82.5 11.5 78.5 C1.6 78.5 -8.3 78.5 -18.5 78.5 C-18.5 93.35 -18.5 108.2 -18.5 123.5 C-24.1066542 122.56555763 -26.13091498 121.72480085 -30.5 118.5 C-30.17 117.84 -29.84 117.18 -29.5 116.5 C-29.28772595 111.96839508 -29.31420454 107.43299802 -29.31469727 102.89697266 C-29.31251524 100.64075741 -29.29436833 98.38503466 -29.27539062 96.12890625 C-29.27245569 94.69271 -29.27047156 93.25651144 -29.26953125 91.8203125 C-29.26542236 90.51336426 -29.26131348 89.20641602 -29.25708008 87.85986328 C-29.48293313 84.73605456 -29.89267512 83.11742723 -31.5 80.5 C-31.5 80.17 -31.5 79.84 -31.5 79.5 C-32.71236328 79.47873047 -32.71236328 79.47873047 -33.94921875 79.45703125 C-43.76588829 79.0188928 -43.76588829 79.0188928 -46.6875 76.0625 C-49.38281125 72.25188754 -49.79267175 70.18274799 -49.5 65.5 C-47.5 63.5 -47.5 63.5 -45.44140625 63.48828125 C-44.65636719 63.59527344 -43.87132812 63.70226562 -43.0625 63.8125 C-41.88880859 63.96138672 -41.88880859 63.96138672 -40.69140625 64.11328125 C-38.5 64.5 -38.5 64.5 -35.5 65.5 C-34.01229395 65.61375872 -32.52032676 65.67607202 -31.02856445 65.70532227 C-30.12785721 65.72526749 -29.22714996 65.74521271 -28.29914856 65.76576233 C-27.33031235 65.78247482 -26.36147614 65.79918732 -25.36328125 65.81640625 C-24.36870407 65.83718735 -23.37412689 65.85796844 -22.34941101 65.87937927 C-19.17051133 65.94479412 -15.99152866 66.0037224 -12.8125 66.0625 C-10.65819452 66.10569288 -8.50389746 66.14930742 -6.34960938 66.19335938 C-1.06649412 66.30046726 4.21670379 66.40224873 9.5 66.5 C9.005 63.035 9.005 63.035 8.5 59.5 C7.42105469 59.48018066 6.34210938 59.46036133 5.23046875 59.43994141 C1.19720567 59.3634144 -2.8357186 59.27477263 -6.86865234 59.18261719 C-8.60849276 59.14452085 -10.34840676 59.10963553 -12.08837891 59.078125 C-14.60085205 59.03205099 -17.112827 58.9741305 -19.625 58.9140625 C-20.39303955 58.90251129 -21.1610791 58.89096008 -21.95239258 58.87905884 C-28.44593173 58.70473979 -34.4457933 58.29743086 -39.5 53.875 C-42.56125017 48.70914034 -41.9387703 44.30447309 -40.56958008 38.67358398 C-40.14911197 37.36022672 -39.71523099 36.05110427 -39.26953125 34.74609375 C-39.03723312 34.04154556 -38.804935 33.33699738 -38.56559753 32.61109924 C-38.07460817 31.13272429 -37.57764077 29.65632236 -37.07495117 28.18188477 C-36.31511355 25.94519337 -35.58126304 23.70112471 -34.84960938 21.45507812 C-34.36612114 20.00990128 -33.88114371 18.56522162 -33.39453125 17.12109375 C-33.1797261 16.46048447 -32.96492096 15.79987518 -32.74360657 15.11924744 C-30.63017083 9.02135534 -27.60653497 3.59745417 -22.0625 0.0625 C-15.28371654 -2.92016472 -6.74092171 -2.88896645 0 0 Z " fill="#020202" transform="translate(89.5,83.5)"/>
<path d="M0 0 C1.42315521 0.04390617 1.42315521 0.04390617 2.87506104 0.08869934 C5.90247273 0.18759271 8.92713793 0.32184392 11.953125 0.45703125 C14.00642843 0.53032884 16.05981557 0.60132021 18.11328125 0.66992188 C23.14459129 0.84305499 28.17372707 1.04790641 33.203125 1.26953125 C34.96974646 12.95805131 31.82900445 20.55689671 25.203125 30.26953125 C23.03480534 33.09966735 20.86233105 35.88396382 18.203125 38.26953125 C17.543125 38.26953125 16.883125 38.26953125 16.203125 38.26953125 C15.81640625 39.14351562 15.81640625 39.14351562 15.421875 40.03515625 C14.10478483 42.44982155 12.65224116 44.08693302 10.703125 46.01953125 C9.79046875 46.93992187 9.79046875 46.93992187 8.859375 47.87890625 C7.203125 49.26953125 7.203125 49.26953125 5.203125 49.26953125 C4.94789063 49.87410156 4.69265625 50.47867188 4.4296875 51.1015625 C2.34077823 54.7937429 -1.0179072 56.51830227 -4.796875 58.26953125 C-7.5299609 58.90879541 -9.97702132 59.11846766 -12.796875 59.26953125 C-14.41004343 54.29895851 -15.04460301 50.1383395 -15.02734375 44.859375 C-15.02688553 44.17001358 -15.02642731 43.48065216 -15.0259552 42.770401 C-15.02295183 41.31737539 -15.01512347 39.86435244 -15.00268555 38.41137695 C-14.9846241 36.23701969 -14.98217515 34.06309585 -14.98242188 31.88867188 C-14.97338422 27.68065483 -14.90223239 23.47616693 -14.796875 19.26953125 C-14.78255432 18.60125305 -14.76823364 17.93297485 -14.753479 17.2444458 C-14.70350929 15.33670927 -14.61997272 13.42994263 -14.53515625 11.5234375 C-14.49044189 10.43490479 -14.44572754 9.34637207 -14.3996582 8.22485352 C-12.62781624 -0.4621238 -7.61168099 -0.39451649 0 0 Z " fill="#010102" transform="translate(152.796875,140.73046875)"/>
<path d="M0 0 C5.43051946 2.45910315 8.80308928 6.51711172 11 12 C11.76791787 16.69444133 11.33423724 20.73467332 10.125 25.3125 C6.13620229 30.35715593 0.53493089 32.66200922 -5.75 33.5 C-12.66059253 32.43683192 -15.98457506 29.39214206 -20 24 C-21.85979392 20.28041216 -21.4381614 16.05907851 -21 12 C-17.51025085 1.92903915 -9.78639631 -1.04046432 0 0 Z " fill="#000000" transform="translate(87,42)"/>
<path d="M0 0 C0.76772736 0.0169693 1.53545471 0.0339386 2.32644653 0.05142212 C4.52409718 0.10273931 6.72084961 0.16806807 8.91796875 0.23828125 C10.83838989 0.29495972 10.83838989 0.29495972 12.79760742 0.3527832 C15.8125 0.6875 15.8125 0.6875 17.8125 2.6875 C18.08241906 5.37589385 17.89987357 7.97891936 17.8125 10.6875 C11.67577236 13.92009214 6.41505868 14.14078908 -0.44921875 14.12109375 C-1.51743362 14.1263356 -2.5856485 14.13157745 -3.68623352 14.13697815 C-5.9344496 14.14337858 -8.18269925 14.14208712 -10.4309082 14.13354492 C-13.87446183 14.12500134 -17.31637421 14.15387956 -20.75976562 14.18554688 C-22.94791617 14.18715819 -25.13606965 14.1865827 -27.32421875 14.18359375 C-28.86803474 14.20044472 -28.86803474 14.20044472 -30.44303894 14.21763611 C-37.51015023 14.1484421 -37.51015023 14.1484421 -40.83911133 11.88305664 C-42.79953155 8.69094021 -42.66182974 6.34661511 -42.1875 2.6875 C-38.36364827 0.13826551 -35.07981443 0.18254995 -30.625 0 C-29.29505005 -0.05861206 -29.29505005 -0.05861206 -27.93823242 -0.1184082 C-18.62154487 -0.437425 -9.31577143 -0.23834541 0 0 Z " fill="#010101" transform="translate(170.1875,121.3125)"/>
<path d="M0 0 C-0.33 0.99 -0.66 1.98 -1 3 C-2.98982813 3.69643985 -4.99294757 4.354876 -7 5 C-9.3205802 6.30482451 -11.59180433 7.66682551 -13.8515625 9.07421875 C-16.38567304 10.16619002 -17.46049958 9.94800355 -20 9 C-17.91794343 7.70623653 -15.83442696 6.41493446 -13.75 5.125 C-13.16347656 4.76019531 -12.57695313 4.39539063 -11.97265625 4.01953125 C-3.55225763 -1.18408588 -3.55225763 -1.18408588 0 0 Z " fill="#66676A" transform="translate(70,11)"/>
<path d="M0 0 C0.80824219 0.04382812 1.61648437 0.08765625 2.44921875 0.1328125 C3.70412109 0.21015625 3.70412109 0.21015625 4.984375 0.2890625 C6.21607422 0.35480469 6.21607422 0.35480469 7.47265625 0.421875 C12.59737613 0.71425205 17.64826258 1.22263247 22.734375 1.9140625 C22.734375 2.2440625 22.734375 2.5740625 22.734375 2.9140625 C11.184375 2.9140625 -0.365625 2.9140625 -12.265625 2.9140625 C-7.8230038 0.6927519 -4.90807642 -0.27631138 0 0 Z " fill="#7B7A7C" transform="translate(100.265625,15.0859375)"/>
<path d="M0 0 C2.31 0.33 4.62 0.66 7 1 C5.55037942 3.89924116 3.54758474 4.31328874 0.625 5.625 C-0.84066406 6.29402344 -0.84066406 6.29402344 -2.3359375 6.9765625 C-5 8 -5 8 -8 8 C-8 7.34 -8 6.68 -8 6 C-2.25 3 -2.25 3 0 3 C0 2.01 0 1.02 0 0 Z " fill="#68686A" transform="translate(152,216)"/>
<path d="M0 0 C1.9451 2.91765 2.45276317 4.62537285 3 8 C3.66 8 4.32 8 5 8 C6.05404945 11.98196457 5.84098656 14.98195309 5 19 C4.67 19 4.34 19 4 19 C3.87882813 18.14535156 3.75765625 17.29070312 3.6328125 16.41015625 C3.46523437 15.30542969 3.29765625 14.20070313 3.125 13.0625 C2.96257812 11.96035156 2.80015625 10.85820313 2.6328125 9.72265625 C2.42398438 8.82417969 2.21515625 7.92570312 2 7 C1.34 6.67 0.68 6.34 0 6 C0 4.02 0 2.04 0 0 Z " fill="#848486" transform="translate(196,81)"/>
<path d="M0 0 C1 2 1 2 0.29296875 4.2421875 C-0.07183594 5.11101562 -0.43664062 5.97984375 -0.8125 6.875 C-1.16957031 7.73867187 -1.52664062 8.60234375 -1.89453125 9.4921875 C-2.86758977 11.6996206 -3.89750962 13.85488298 -5 16 C-5.31364748 10.04069781 -4.80867326 6.29326883 -2 1 C-1.34 0.67 -0.68 0.34 0 0 Z " fill="#717173" transform="translate(24,73)"/>
<path d="M0 0 C1.98 0.99 3.96 1.98 6 3 C6 3.66 6 4.32 6 5 C6.66 5 7.32 5 8 5 C8 5.66 8 6.32 8 7 C8.66 7 9.32 7 10 7 C9.67 8.32 9.34 9.64 9 11 C7.49403892 9.54782324 5.99537896 8.08807139 4.5 6.625 C3.6646875 5.81289062 2.829375 5.00078125 1.96875 4.1640625 C0 2 0 2 0 0 Z " fill="#727173" transform="translate(172,213)"/>
<path d="M0 0 C3.21079428 1.03204102 4.59940291 2.58748662 6.3125 5.375 C8.03433482 9.07375628 8.20907496 9.45858043 7 13 C5.82786955 11.21190303 4.66244474 9.41940875 3.5 7.625 C2.8503125 6.62726562 2.200625 5.62953125 1.53125 4.6015625 C0 2 0 2 0 0 Z " fill="#575759" transform="translate(196,51)"/>
<path d="M0 0 C0 4.09939665 -1.52298101 5.78656995 -4 9 C-6.75 10.875 -6.75 10.875 -9 12 C-7.55575365 8.76138697 -5.74227753 6.38030837 -3.375 3.75 C-2.74335938 3.04359375 -2.11171875 2.3371875 -1.4609375 1.609375 C-0.97882812 1.07828125 -0.49671875 0.5471875 0 0 Z " fill="#6F6F71" transform="translate(32,35)"/>
<path d="M0 0 C3 1 3 1 4.6875 3.25 C6.06511203 6.1364252 6.26985151 7.85173236 6 11 C2.19298246 8.54385965 2.19298246 8.54385965 1.3125 6.0625 C1.1578125 5.0415625 1.1578125 5.0415625 1 4 C0.814375 3.2575 0.62875 2.515 0.4375 1.75 C0.293125 1.1725 0.14875 0.595 0 0 Z " fill="#6E6E70" transform="translate(185,59)"/>
<path d="M0 0 C1.32 0 2.64 0 4 0 C4 0.66 4 1.32 4 2 C4.66 2 5.32 2 6 2 C6 2.66 6 3.32 6 4 C6.66 4 7.32 4 8 4 C7.67 5.32 7.34 6.64 7 8 C5.83035398 6.8572081 4.66435444 5.71068285 3.5 4.5625 C2.8503125 3.92441406 2.200625 3.28632813 1.53125 2.62890625 C0 1 0 1 0 0 Z " fill="#6A6A6C" transform="translate(182,224)"/>
<path d="M0 0 C1.1875 1.625 1.1875 1.625 2 4 C0.625 7.25 0.625 7.25 -1 10 C-1.66 10 -2.32 10 -3 10 C-3.33 10.66 -3.66 11.32 -4 12 C-3.33501617 7.61110675 -1.81242323 4.0188515 0 0 Z " fill="#6A6B6C" transform="translate(11,65)"/>
<path d="M0 0 C1 3 1 3 -0.21484375 5.48046875 C-0.78332031 6.37378906 -1.35179687 7.26710937 -1.9375 8.1875 C-2.50339844 9.08855469 -3.06929687 9.98960937 -3.65234375 10.91796875 C-4.09707031 11.60503906 -4.54179687 12.29210937 -5 13 C-5.61328125 11.15625 -5.61328125 11.15625 -6 9 C-4.1875 6.5 -4.1875 6.5 -2 4 C-1.29114106 2.68861096 -0.60543548 1.36222983 0 0 Z " fill="#7A7B7D" transform="translate(206,165)"/>
<path d="M0 0 C2.60334924 2.71182212 2.99456691 3.89133813 3.1875 7.75 C3.0946875 9.35875 3.0946875 9.35875 3 11 C1 10 1 10 0 7 C-0.03954234 4.66700175 -0.04401732 2.33291811 0 0 Z " fill="#4B4C4D" transform="translate(16,136)"/>
<path d="M0 0 C4.11979807 1.37326602 7.04297546 4.08595092 9 8 C5.26177603 7.08621192 3.43959834 6.6007844 1.125 3.4375 C0 1 0 1 0 0 Z " fill="#717172" transform="translate(42,186)"/>
<path d="M0 0 C0.99 0.33 1.98 0.66 3 1 C0.33333333 3.66666667 -2.33333333 6.33333333 -5 9 C-5.66 8.67 -6.32 8.34 -7 8 C-4.69 5.36 -2.38 2.72 0 0 Z " fill="#444647" transform="translate(175,186)"/>
<path d="M0 0 C0.66 0 1.32 0 2 0 C2 0.66 2 1.32 2 2 C2.9590625 2.3403125 2.9590625 2.3403125 3.9375 2.6875 C6 4 6 4 6.75 6.625 C6.8325 7.40875 6.915 8.1925 7 9 C4.03595495 6.19195732 1.55500981 3.81684226 0 0 Z " fill="#6D6D6E" transform="translate(20,182)"/>
<path d="M0 0 C0.33 0.66 0.66 1.32 1 2 C1.66 2 2.32 2 3 2 C4.625 4 4.625 4 6 6 C5.01 7.485 5.01 7.485 4 9 C0 3.375 0 3.375 0 0 Z " fill="#565759" transform="translate(24,161)"/>
<path d="M0 0 C-3.44450737 2.29633824 -5.93812283 2.54016485 -10 3 C-9.67 2.01 -9.34 1.02 -9 0 C-5.8033 -1.37001429 -3.30096158 -0.8252404 0 0 Z " fill="#757577" transform="translate(138,226)"/>
<path d="M0 0 C2.62901288 1.52206009 4.84365964 2.84365964 7 5 C6.67 5.99 6.34 6.98 6 8 C4.99403703 7.0479279 3.99538437 6.08812654 3 5.125 C2.443125 4.59132812 1.88625 4.05765625 1.3125 3.5078125 C0 2 0 2 0 0 Z " fill="#515253" transform="translate(189,193)"/>
<path d="M0 0 C0.66 0.99 1.32 1.98 2 3 C-0.625 7.875 -0.625 7.875 -4 9 C-2.80100302 5.9168649 -1.52299523 2.93720508 0 0 Z " fill="#66676A" transform="translate(192,160)"/>
<path d="M0 0 C0.66 0.33 1.32 0.66 2 1 C0.68 2.65 -0.64 4.3 -2 6 C-3.32 5.67 -4.64 5.34 -6 5 C-4.02 3.35 -2.04 1.7 0 0 Z " fill="#737375" transform="translate(164,195)"/>
<path d="M0 0 C1.41377341 2.63904371 2.37240135 5.07120629 3 8 C1.68 8 0.36 8 -1 8 C-0.67 5.36 -0.34 2.72 0 0 Z " fill="#77787A" transform="translate(3,88)"/>
<path d="M0 0 C-2.3125 2.0625 -2.3125 2.0625 -5 4 C-5.99 3.67 -6.98 3.34 -8 3 C-6.14481495 -0.71037009 -3.79223618 -1.26407873 0 0 Z " fill="#6F6F70" transform="translate(240,273)"/>
<path d="M0 0 C2.62187494 1.04874998 3.79371361 1.64931313 5.25 4.125 C5.4975 4.74375 5.745 5.3625 6 6 C4.68 5.34 3.36 4.68 2 4 C2 3.34 2 2.68 2 2 C0.68 2.33 -0.64 2.66 -2 3 C-1.34 2.01 -0.68 1.02 0 0 Z " fill="#4D4E50" transform="translate(168,208)"/>
<path d="M0 0 C4.455 0.99 4.455 0.99 9 2 C6 4 6 4 3.3125 3.625 C2.549375 3.41875 1.78625 3.2125 1 3 C0.67 2.01 0.34 1.02 0 0 Z " fill="#6C6D6E" transform="translate(137,6)"/>
<path d="M0 0 C0.66 0 1.32 0 2 0 C2 0.66 2 1.32 2 2 C1.34 2 0.68 2 0 2 C0 1.34 0 0.68 0 0 Z " fill="#868788" transform="translate(12,174)"/>
<path d="M0 0 C3 1 3 1 3 1 Z " fill="#828283" transform="translate(168,213)"/>
<path d="" fill="#838485" transform="translate(0,0)"/>
<path d="M0 0 C2 1 2 1 2 1 Z " fill="#878788" transform="translate(8,168)"/>
<path d="M0 0 C2 1 2 1 2 1 Z " fill="#828283" transform="translate(184,120)"/>
<path d="M0 0 C2 1 2 1 2 1 Z " fill="#848586" transform="translate(188,70)"/>
<path d="M0 0 C2 1 2 1 2 1 Z " fill="#858485" transform="translate(130,21)"/>
<path d="" fill="#8E8D8F" transform="translate(0,0)"/>
<path d="" fill="#8F8E91" transform="translate(0,0)"/>
<path d="" fill="#8D8C8F" transform="translate(0,0)"/>
<path d="" fill="#848485" transform="translate(0,0)"/>
<path d="" fill="#8B898A" transform="translate(0,0)"/>
<path d="" fill="#898688" transform="translate(0,0)"/>
<path d="" fill="#868386" transform="translate(0,0)"/>
<path d="" fill="#848281" transform="translate(0,0)"/>
<path d="" fill="#868687" transform="translate(0,0)"/>
<path d="" fill="#818083" transform="translate(0,0)"/>
<path d="" fill="#868486" transform="translate(0,0)"/>
<path d="" fill="#838584" transform="translate(0,0)"/>
<path d="" fill="#878587" transform="translate(0,0)"/>
<path d="" fill="#848383" transform="translate(0,0)"/>
<path d="" fill="#838384" transform="translate(0,0)"/>
<path d="" fill="#858285" transform="translate(0,0)"/>
<path d="" fill="#838181" transform="translate(0,0)"/>
<path d="" fill="#828281" transform="translate(0,0)"/>
<path d="" fill="#878787" transform="translate(0,0)"/>
<path d="" fill="#818083" transform="translate(0,0)"/>
<path d="" fill="#858384" transform="translate(0,0)"/>
<path d="" fill="#828182" transform="translate(0,0)"/>
<path d="" fill="#888688" transform="translate(0,0)"/>
<path d="" fill="#807E80" transform="translate(0,0)"/>
<path d="" fill="#7D7D80" transform="translate(0,0)"/>
<path d="" fill="#808081" transform="translate(0,0)"/>
<path d="" fill="#858688" transform="translate(0,0)"/>
<path d="" fill="#8A888A" transform="translate(0,0)"/>
<path d="" fill="#828082" transform="translate(0,0)"/>
<path d="" fill="#828284" transform="translate(0,0)"/>
<path d="" fill="#848484" transform="translate(0,0)"/>
<path d="" fill="#838183" transform="translate(0,0)"/>
<path d="" fill="#868584" transform="translate(0,0)"/>
<path d="" fill="#838184" transform="translate(0,0)"/>
<path d="" fill="#817F83" transform="translate(0,0)"/>
<path d="" fill="#858284" transform="translate(0,0)"/>
<path d="" fill="#807D7E" transform="translate(0,0)"/>
<path d="" fill="#827F82" transform="translate(0,0)"/>
<path d="" fill="#807F7F" transform="translate(0,0)"/>
<path d="" fill="#828181" transform="translate(0,0)"/>
<path d="" fill="#868485" transform="translate(0,0)"/>
<path d="" fill="#848384" transform="translate(0,0)"/>
<path d="" fill="#888787" transform="translate(0,0)"/>
<path d="" fill="#878786" transform="translate(0,0)"/>
<path d="" fill="#868688" transform="translate(0,0)"/>
<path d="" fill="#878989" transform="translate(0,0)"/>
<path d="" fill="#818183" transform="translate(0,0)"/>
<path d="" fill="#868586" transform="translate(0,0)"/>
<path d="" fill="#838586" transform="translate(0,0)"/>
<path d="" fill="#7E7B7D" transform="translate(0,0)"/>
<path d="" fill="#888889" transform="translate(0,0)"/>
<path d="" fill="#868487" transform="translate(0,0)"/>
<path d="" fill="#838485" transform="translate(0,0)"/>
<path d="" fill="#848585" transform="translate(0,0)"/>
<path d="" fill="#838689" transform="translate(0,0)"/>
<path d="" fill="#838384" transform="translate(0,0)"/>
<path d="" fill="#848384" transform="translate(0,0)"/>
<path d="" fill="#858585" transform="translate(0,0)"/>
<path d="" fill="#878A8A" transform="translate(0,0)"/>
<path d="" fill="#86888A" transform="translate(0,0)"/>
<path d="" fill="#87868B" transform="translate(0,0)"/>
<path d="" fill="#878789" transform="translate(0,0)"/>
<path d="" fill="#868788" transform="translate(0,0)"/>
<path d="" fill="#828283" transform="translate(0,0)"/>
<path d="" fill="#848585" transform="translate(0,0)"/>
<path d="" fill="#888689" transform="translate(0,0)"/>
<path d="" fill="#868789" transform="translate(0,0)"/>
<path d="" fill="#8A898A" transform="translate(0,0)"/>
</svg>
